G04 #@! TF.GenerationSoftware,KiCad,Pcbnew,5.0.2-bee76a0~70~ubuntu18.04.1*
G04 #@! TF.CreationDate,2019-06-07T16:13:31+01:00*
G04 #@! TF.ProjectId,leaf_adapter,6c656166-5f61-4646-9170-7465722e6b69,rev?*
G04 #@! TF.SameCoordinates,Original*
G04 #@! TF.FileFunction,Profile,NP*
%FSLAX46Y46*%
G04 Gerber Fmt 4.6, Leading zero omitted, Abs format (unit mm)*
G04 Created by KiCad (PCBNEW 5.0.2-bee76a0~70~ubuntu18.04.1) date Fri 07 Jun 2019 16:13:31 BST*
%MOMM*%
%LPD*%
G01*
G04 APERTURE LIST*
%ADD10C,0.127000*%
G04 APERTURE END LIST*
D10*
X76643920Y-41786020D02*
X76567720Y-41719980D01*
X75330740Y-39555900D02*
X75310420Y-39456840D01*
X75310420Y-39456840D02*
X75295180Y-39357780D01*
X77134140Y-42146700D02*
X77047780Y-42090820D01*
X76280700Y-41432960D02*
X76214660Y-41356760D01*
X75572040Y-40328060D02*
X75533940Y-40234080D01*
X77860580Y-42502300D02*
X77764060Y-42466740D01*
X78642900Y-42705500D02*
X78543840Y-42687720D01*
X75254540Y-38953920D02*
X75249460Y-38852320D01*
X75249460Y-38852320D02*
X75249460Y-38750720D01*
X78945160Y-42738520D02*
X78843560Y-42730900D01*
X75351060Y-39654960D02*
X75330740Y-39555900D01*
X75853980Y-40866540D02*
X75800640Y-40780180D01*
X77670080Y-42426100D02*
X77578640Y-42385460D01*
X75800640Y-40780180D02*
X75752380Y-40691280D01*
X75965740Y-41036720D02*
X75909860Y-40952900D01*
X76963960Y-42034940D02*
X76880140Y-41976520D01*
X77487200Y-42342280D02*
X77395760Y-42296560D01*
X78843560Y-42730900D02*
X78744500Y-42718200D01*
X75376460Y-39754020D02*
X75351060Y-39654960D01*
X76420400Y-41580280D02*
X76349280Y-41506620D01*
X76148620Y-41278020D02*
X76085120Y-41199280D01*
X75752380Y-40691280D02*
X75704120Y-40602380D01*
X78444780Y-42669940D02*
X78345720Y-42647080D01*
X76085120Y-41199280D02*
X76024160Y-41118000D01*
X79249960Y-42751220D02*
X79148360Y-42751220D01*
X76349280Y-41506620D02*
X76280700Y-41432960D01*
X79148360Y-42751220D02*
X79046760Y-42746140D01*
X77395760Y-42296560D02*
X77306860Y-42248300D01*
X77306860Y-42248300D02*
X77220500Y-42197500D01*
X78744500Y-42718200D02*
X78642900Y-42705500D01*
X75432340Y-39949600D02*
X75401860Y-39850540D01*
X75462820Y-40046120D02*
X75432340Y-39949600D01*
X75658400Y-40513480D02*
X75615220Y-40422040D01*
X76214660Y-41356760D02*
X76148620Y-41278020D01*
X75401860Y-39850540D02*
X75376460Y-39754020D01*
X76024160Y-41118000D02*
X75965740Y-41036720D01*
X78147600Y-42596280D02*
X78051080Y-42568340D01*
X77954560Y-42535320D02*
X77860580Y-42502300D01*
X79046760Y-42746140D02*
X78945160Y-42738520D01*
X75269780Y-39157120D02*
X75259620Y-39055520D01*
X75259620Y-39055520D02*
X75254540Y-38953920D01*
X78345720Y-42647080D02*
X78246660Y-42624220D01*
X78543840Y-42687720D02*
X78444780Y-42669940D01*
X75533940Y-40234080D02*
X75498380Y-40140100D01*
X78051080Y-42568340D02*
X77954560Y-42535320D01*
X76801400Y-41915560D02*
X76720120Y-41852060D01*
X76880140Y-41976520D02*
X76801400Y-41915560D01*
X77578640Y-42385460D02*
X77487200Y-42342280D01*
X75704120Y-40602380D02*
X75658400Y-40513480D01*
X77220500Y-42197500D02*
X77134140Y-42146700D01*
X77047780Y-42090820D02*
X76963960Y-42034940D01*
X75295180Y-39357780D02*
X75279940Y-39256180D01*
X75279940Y-39256180D02*
X75269780Y-39157120D01*
X77764060Y-42466740D02*
X77670080Y-42426100D01*
X76494060Y-41651400D02*
X76420400Y-41580280D01*
X76567720Y-41719980D02*
X76494060Y-41651400D01*
X76720120Y-41852060D02*
X76643920Y-41786020D01*
X78246660Y-42624220D02*
X78147600Y-42596280D01*
X75909860Y-40952900D02*
X75853980Y-40866540D01*
X75615220Y-40422040D02*
X75572040Y-40328060D01*
X75498380Y-40140100D02*
X75462820Y-40046120D01*
X59250000Y-144750000D02*
X59250000Y-144750000D01*
X59250000Y-144750000D02*
X164660000Y-144750000D01*
X164660000Y-144750000D02*
X164660000Y-144650940D01*
X164660000Y-144650940D02*
X164667620Y-144551880D01*
X164667620Y-144551880D02*
X164675240Y-144452820D01*
X164675240Y-144452820D02*
X164690480Y-144353760D01*
X164690480Y-144353760D02*
X164708260Y-144254700D01*
X164708260Y-144254700D02*
X164728580Y-144158180D01*
X164728580Y-144158180D02*
X164753980Y-144061660D01*
X164753980Y-144061660D02*
X164781920Y-143965140D01*
X164781920Y-143965140D02*
X164814940Y-143871160D01*
X164814940Y-143871160D02*
X164853040Y-143779720D01*
X164853040Y-143779720D02*
X164891140Y-143688280D01*
X164891140Y-143688280D02*
X164934320Y-143599380D01*
X164934320Y-143599380D02*
X164982580Y-143510480D01*
X164982580Y-143510480D02*
X165033380Y-143424120D01*
X165033380Y-143424120D02*
X165086720Y-143340300D01*
X165086720Y-143340300D02*
X165142600Y-143259020D01*
X165142600Y-143259020D02*
X165203560Y-143177740D01*
X165203560Y-143177740D02*
X165267060Y-143101540D01*
X165267060Y-143101540D02*
X165333100Y-143027880D01*
X165333100Y-143027880D02*
X165401680Y-142954220D01*
X165401680Y-142954220D02*
X165475340Y-142885640D01*
X165475340Y-142885640D02*
X165549000Y-142819600D01*
X165549000Y-142819600D02*
X165625200Y-142756100D01*
X165625200Y-142756100D02*
X165706480Y-142695140D01*
X165706480Y-142695140D02*
X165787760Y-142639260D01*
X165787760Y-142639260D02*
X165871580Y-142585920D01*
X165871580Y-142585920D02*
X165957940Y-142535120D01*
X165957940Y-142535120D02*
X166046840Y-142486860D01*
X166046840Y-142486860D02*
X166135740Y-142443680D01*
X166135740Y-142443680D02*
X166227180Y-142405580D01*
X166227180Y-142405580D02*
X166318620Y-142367480D01*
X166318620Y-142367480D02*
X166412600Y-142334460D01*
X166412600Y-142334460D02*
X166509120Y-142306520D01*
X166509120Y-142306520D02*
X166605640Y-142281120D01*
X166605640Y-142281120D02*
X166702160Y-142260800D01*
X166702160Y-142260800D02*
X166801220Y-142243020D01*
X166801220Y-142243020D02*
X166900280Y-142227780D01*
X166900280Y-142227780D02*
X166999340Y-142220160D01*
X166999340Y-142220160D02*
X167098400Y-142212540D01*
X167098400Y-142212540D02*
X167200000Y-142210000D01*
X167200000Y-142210000D02*
X200220000Y-142210000D01*
X200220000Y-142210000D02*
X200319060Y-142212540D01*
X200319060Y-142212540D02*
X200418120Y-142220160D01*
X200418120Y-142220160D02*
X200517180Y-142227780D01*
X200517180Y-142227780D02*
X200616240Y-142243020D01*
X200616240Y-142243020D02*
X200715300Y-142260800D01*
X200715300Y-142260800D02*
X200811820Y-142281120D01*
X200811820Y-142281120D02*
X200908340Y-142306520D01*
X200908340Y-142306520D02*
X201004860Y-142334460D01*
X201004860Y-142334460D02*
X201098840Y-142367480D01*
X201098840Y-142367480D02*
X201190280Y-142405580D01*
X201190280Y-142405580D02*
X201281720Y-142443680D01*
X201281720Y-142443680D02*
X201370620Y-142486860D01*
X201370620Y-142486860D02*
X201459520Y-142535120D01*
X201459520Y-142535120D02*
X201545880Y-142585920D01*
X201545880Y-142585920D02*
X201629700Y-142639260D01*
X201629700Y-142639260D02*
X201710980Y-142695140D01*
X201710980Y-142695140D02*
X201792260Y-142756100D01*
X201792260Y-142756100D02*
X201868460Y-142819600D01*
X201868460Y-142819600D02*
X201942120Y-142885640D01*
X201942120Y-142885640D02*
X202015780Y-142954220D01*
X202015780Y-142954220D02*
X202084360Y-143027880D01*
X202084360Y-143027880D02*
X202150400Y-143101540D01*
X202150400Y-143101540D02*
X202213900Y-143177740D01*
X202213900Y-143177740D02*
X202274860Y-143259020D01*
X202274860Y-143259020D02*
X202330740Y-143340300D01*
X202330740Y-143340300D02*
X202384080Y-143424120D01*
X202384080Y-143424120D02*
X202434880Y-143510480D01*
X202434880Y-143510480D02*
X202483140Y-143599380D01*
X202483140Y-143599380D02*
X202526320Y-143688280D01*
X202526320Y-143688280D02*
X202564420Y-143779720D01*
X202564420Y-143779720D02*
X202602520Y-143871160D01*
X202602520Y-143871160D02*
X202635540Y-143965140D01*
X202635540Y-143965140D02*
X202663480Y-144061660D01*
X202663480Y-144061660D02*
X202688880Y-144158180D01*
X202688880Y-144158180D02*
X202709200Y-144254700D01*
X202709200Y-144254700D02*
X202726980Y-144353760D01*
X202726980Y-144353760D02*
X202742220Y-144452820D01*
X202742220Y-144452820D02*
X202749840Y-144551880D01*
X202749840Y-144551880D02*
X202757460Y-144650940D01*
X202757460Y-144650940D02*
X202760000Y-144750000D01*
X202760000Y-144750000D02*
X217248160Y-144750000D01*
X217248160Y-144750000D02*
X217248160Y-38750720D01*
X217248160Y-38750720D02*
X205249200Y-38750720D01*
X205249200Y-38750720D02*
X205246660Y-38852320D01*
X205246660Y-38852320D02*
X205244120Y-38953920D01*
X205244120Y-38953920D02*
X205236500Y-39055520D01*
X205236500Y-39055520D02*
X205228880Y-39157120D01*
X205228880Y-39157120D02*
X205216180Y-39256180D01*
X205216180Y-39256180D02*
X205203480Y-39357780D01*
X205203480Y-39357780D02*
X205185700Y-39456840D01*
X205185700Y-39456840D02*
X205167920Y-39555900D01*
X205167920Y-39555900D02*
X205145060Y-39654960D01*
X205145060Y-39654960D02*
X205122200Y-39754020D01*
X205122200Y-39754020D02*
X205094260Y-39850540D01*
X205094260Y-39850540D02*
X205066320Y-39949600D01*
X205066320Y-39949600D02*
X205033300Y-40046120D01*
X205033300Y-40046120D02*
X205000280Y-40140100D01*
X205000280Y-40140100D02*
X204962180Y-40234080D01*
X204962180Y-40234080D02*
X204924080Y-40328060D01*
X204924080Y-40328060D02*
X204883440Y-40422040D01*
X204883440Y-40422040D02*
X204840260Y-40513480D01*
X204840260Y-40513480D02*
X204794540Y-40602380D01*
X204794540Y-40602380D02*
X204746280Y-40691280D01*
X204746280Y-40691280D02*
X204695480Y-40780180D01*
X204695480Y-40780180D02*
X204642140Y-40866540D01*
X204642140Y-40866540D02*
X204588800Y-40952900D01*
X204588800Y-40952900D02*
X204532920Y-41036720D01*
X204532920Y-41036720D02*
X204471960Y-41118000D01*
X204471960Y-41118000D02*
X204411000Y-41199280D01*
X204411000Y-41199280D02*
X204350040Y-41278020D01*
X204350040Y-41278020D02*
X204284000Y-41356760D01*
X204284000Y-41356760D02*
X204217960Y-41432960D01*
X204217960Y-41432960D02*
X204146840Y-41506620D01*
X204146840Y-41506620D02*
X204078260Y-41580280D01*
X204078260Y-41580280D02*
X204004600Y-41651400D01*
X204004600Y-41651400D02*
X203930940Y-41719980D01*
X203930940Y-41719980D02*
X203854740Y-41786020D01*
X203854740Y-41786020D02*
X203776000Y-41852060D01*
X203776000Y-41852060D02*
X203697260Y-41915560D01*
X203697260Y-41915560D02*
X203615980Y-41976520D01*
X203615980Y-41976520D02*
X203534700Y-42034940D01*
X203534700Y-42034940D02*
X203450880Y-42090820D01*
X203450880Y-42090820D02*
X203364520Y-42146700D01*
X203364520Y-42146700D02*
X203278160Y-42197500D01*
X203278160Y-42197500D02*
X203189260Y-42248300D01*
X203189260Y-42248300D02*
X203100360Y-42296560D01*
X203100360Y-42296560D02*
X203011460Y-42342280D01*
X203011460Y-42342280D02*
X202920020Y-42385460D01*
X202920020Y-42385460D02*
X202826040Y-42426100D01*
X202826040Y-42426100D02*
X202732060Y-42466740D01*
X202732060Y-42466740D02*
X202638080Y-42502300D01*
X202638080Y-42502300D02*
X202541560Y-42535320D01*
X202541560Y-42535320D02*
X202445040Y-42568340D01*
X202445040Y-42568340D02*
X202348520Y-42596280D01*
X202348520Y-42596280D02*
X202252000Y-42624220D01*
X202252000Y-42624220D02*
X202152940Y-42647080D01*
X202152940Y-42647080D02*
X202053880Y-42669940D01*
X202053880Y-42669940D02*
X201954820Y-42687720D01*
X201954820Y-42687720D02*
X201853220Y-42705500D01*
X201853220Y-42705500D02*
X201754160Y-42718200D01*
X201754160Y-42718200D02*
X201652560Y-42730900D01*
X201652560Y-42730900D02*
X201553500Y-42738520D01*
X201553500Y-42738520D02*
X201451900Y-42746140D01*
X201451900Y-42746140D02*
X201350300Y-42751220D01*
X201350300Y-42751220D02*
X201248700Y-42751220D01*
X201248700Y-42751220D02*
X79249960Y-42751220D01*
X75249460Y-38750720D02*
X59250000Y-38750720D01*
X59250000Y-38750720D02*
X59250000Y-144750000D01*
M02*
