M48
;DRILL file {KiCad 5.0.2-bee76a0~70~ubuntu18.04.1} date Fri 07 Jun 2019 16:13:39 BST
;FORMAT={-:-/ absolute / metric / decimal}
FMAT,2
METRIC,TZ
T1C0.400
T2C0.600
T3C0.800
T4C1.000
T5C1.100
T6C1.200
T7C3.500
T8C5.300
T9C3.500
%
G90
G05
T1
X85.3Y-92.209
X88.15Y-112.95
X89.15Y-111.75
X96.3Y-90.2
X96.4Y-120.6
X98.8Y-81.1
X98.801Y-119.301
X99.7Y-79.6
X100.4Y-87.
X100.76Y-118.06
X102.019Y-93.
X102.019Y-116.819
X102.81Y-115.52
X120.297Y-106.291
X120.3Y-90.1
X122.4Y-91.4
X122.4Y-105.5
X164.Y-94.
X165.6Y-81.392
X166.8Y-93.1
X168.1Y-86.6
X175.Y-93.1
X175.05Y-61.5
X175.2Y-86.6
X178.5Y-81.7
X180.1Y-94.5
T2
X74.775Y-61.25
X75.939Y-58.439
X75.939Y-64.061
X78.75Y-57.275
X78.75Y-65.225
X81.561Y-58.439
X81.561Y-64.061
X82.725Y-61.25
X190.275Y-131.
X191.439Y-128.189
X191.439Y-133.811
X194.25Y-127.025
X194.25Y-134.975
X197.061Y-128.189
X197.061Y-133.811
X198.225Y-131.
X152.525Y-131.
X153.689Y-128.189
X153.689Y-133.811
X156.5Y-127.025
X156.5Y-134.975
X159.311Y-128.189
X159.311Y-133.811
X160.475Y-131.
X114.525Y-131.
X115.689Y-128.189
X115.689Y-133.811
X118.5Y-127.025
X118.5Y-134.975
X121.311Y-128.189
X121.311Y-133.811
X122.475Y-131.
X207.025Y-48.75
X208.189Y-45.939
X208.189Y-51.561
X211.Y-44.775
X211.Y-52.725
X213.811Y-45.939
X213.811Y-51.561
X214.975Y-48.75
X75.025Y-135.
X76.189Y-132.189
X76.189Y-137.811
X79.Y-131.025
X79.Y-138.975
X81.811Y-132.189
X81.811Y-137.811
X82.975Y-135.
X61.025Y-48.75
X62.189Y-45.939
X62.189Y-51.561
X65.Y-44.775
X65.Y-52.725
X67.811Y-45.939
X67.811Y-51.561
X68.975Y-48.75
T3
X117.67Y-62.2
X130.37Y-62.2
X194.4Y-53.31
X194.4Y-66.01
X136.2Y-82.6
X148.9Y-82.6
X102.5Y-62.2
X115.2Y-62.2
X137.99Y-62.2
X137.99Y-74.9
X134.18Y-62.2
X134.18Y-64.7
X199.5Y-66.
X202.Y-66.
X190.06Y-53.31
X190.06Y-66.01
X121.1Y-68.8
X121.1Y-71.34
X121.1Y-73.88
X121.1Y-76.42
X121.1Y-78.96
X121.1Y-81.5
X121.1Y-84.04
X128.72Y-68.8
X128.72Y-71.34
X128.72Y-73.88
X128.72Y-76.42
X128.72Y-78.96
X128.72Y-81.5
X128.72Y-84.04
X102.5Y-71.7
X115.2Y-71.7
X102.5Y-67.
X115.2Y-67.
X190.06Y-49.5
X202.76Y-49.5
T4
X167.4Y-133.3
X167.4Y-135.84
X169.94Y-133.3
X169.94Y-135.84
X172.48Y-133.3
X172.48Y-135.84
X175.02Y-133.3
X175.02Y-135.84
X177.56Y-133.3
X177.56Y-135.84
X180.1Y-133.3
X180.1Y-135.84
X182.64Y-133.3
X182.64Y-135.84
X134.35Y-90.12
X134.35Y-92.66
X134.35Y-95.2
X134.35Y-97.74
X134.35Y-100.28
X134.35Y-102.82
X134.35Y-105.36
X134.35Y-107.9
X134.35Y-110.44
X134.35Y-112.98
X134.35Y-115.52
X134.35Y-118.06
X134.35Y-120.6
X136.89Y-90.12
X136.89Y-92.66
X136.89Y-95.2
X136.89Y-97.74
X136.89Y-100.28
X136.89Y-102.82
X136.89Y-105.36
X136.89Y-107.9
X136.89Y-110.44
X136.89Y-112.98
X136.89Y-115.52
X136.89Y-118.06
X136.89Y-120.6
X162.3Y-64.85
X162.3Y-67.39
X164.84Y-64.85
X164.84Y-67.39
X167.38Y-64.85
X167.38Y-67.39
X169.92Y-64.85
X169.92Y-67.39
X172.46Y-64.85
X172.46Y-67.39
X175.Y-64.85
X175.Y-67.39
X177.54Y-64.85
X177.54Y-67.39
X180.08Y-64.85
X180.08Y-67.39
T5
X166.24Y-56.752
X168.24Y-56.752
X170.24Y-56.752
X172.24Y-56.752
X174.24Y-56.752
X176.24Y-56.752
X178.24Y-56.752
X180.24Y-56.752
X110.748Y-56.752
X110.748Y-58.752
X112.748Y-56.752
X112.748Y-58.752
X114.748Y-56.752
X114.748Y-58.752
X116.748Y-56.752
X118.748Y-56.752
X120.748Y-56.752
X122.748Y-56.752
X124.748Y-56.752
X124.748Y-58.752
X90.949Y-56.802
X92.949Y-56.802
X94.949Y-56.802
X96.949Y-56.802
X98.949Y-56.802
X140.248Y-56.802
X142.248Y-56.802
X144.248Y-56.802
X146.248Y-56.802
X148.248Y-56.802
X150.248Y-56.802
X152.248Y-56.802
X154.248Y-56.802
T6
X163.25Y-48.352
X163.25Y-50.502
X163.25Y-52.652
X166.24Y-58.752
X168.24Y-58.752
X178.24Y-58.752
X180.24Y-58.752
X183.23Y-48.352
X183.23Y-50.502
X183.23Y-52.652
X107.233Y-48.352
X107.233Y-50.502
X107.233Y-52.652
X126.748Y-56.752
X126.748Y-58.752
X128.749Y-56.752
X128.749Y-58.752
X132.263Y-48.352
X132.263Y-50.502
X132.263Y-52.652
X87.259Y-48.402
X87.259Y-50.552
X87.259Y-52.703
X102.639Y-48.402
X102.639Y-50.552
X102.639Y-52.703
X73.108Y-69.97
X73.108Y-74.97
X73.108Y-80.97
X73.108Y-83.97
X73.108Y-86.97
X73.108Y-89.97
X73.108Y-92.97
X73.108Y-95.97
X73.108Y-98.97
X73.108Y-101.97
X73.108Y-120.97
X73.108Y-123.97
X73.108Y-126.97
X76.108Y-69.97
X76.108Y-74.97
X76.108Y-117.97
X76.108Y-120.97
X76.108Y-123.97
X76.108Y-126.97
X79.108Y-80.97
X79.108Y-83.97
X79.108Y-86.97
X79.108Y-89.97
X79.108Y-92.97
X79.108Y-98.97
X79.108Y-101.97
X79.108Y-117.97
X79.108Y-120.97
X79.108Y-123.97
X79.108Y-126.97
X82.108Y-80.97
X82.108Y-83.97
X82.108Y-86.97
X82.108Y-89.97
X82.108Y-92.97
X82.108Y-95.97
X82.108Y-98.97
X82.108Y-101.97
X82.108Y-123.97
X82.108Y-126.97
X137.258Y-48.402
X137.258Y-50.552
X137.258Y-52.703
X157.238Y-48.402
X157.238Y-50.552
X157.238Y-52.703
T7
X63.358Y-71.22
X63.358Y-125.22
X81.608Y-110.97
T8
X78.75Y-61.25
X194.25Y-131.
X156.5Y-131.
X118.5Y-131.
X211.Y-48.75
X79.Y-135.
X65.Y-48.75
T9
X64.758Y-62.22
X64.758Y-134.22
T0
M30
