G04 #@! TF.GenerationSoftware,KiCad,Pcbnew,5.0.2-bee76a0~70~ubuntu18.04.1*
G04 #@! TF.CreationDate,2019-06-20T22:09:52+01:00*
G04 #@! TF.ProjectId,leaf_adapter,6c656166-5f61-4646-9170-7465722e6b69,rev?*
G04 #@! TF.SameCoordinates,Original*
G04 #@! TF.FileFunction,Profile,NP*
%FSLAX46Y46*%
G04 Gerber Fmt 4.6, Leading zero omitted, Abs format (unit mm)*
G04 Created by KiCad (PCBNEW 5.0.2-bee76a0~70~ubuntu18.04.1) date Thu 20 Jun 2019 22:09:52 BST*
%MOMM*%
%LPD*%
G01*
G04 APERTURE LIST*
%ADD10C,0.127000*%
%ADD11C,0.150000*%
G04 APERTURE END LIST*
D10*
X200250000Y-142250000D02*
G75*
G02X201500000Y-143500000I0J-1250000D01*
G01*
X202750000Y-144750000D02*
G75*
G02X201500000Y-143500000I0J1250000D01*
G01*
X166000000Y-143500000D02*
G75*
G02X167250000Y-142250000I1250000J0D01*
G01*
X166000000Y-143500000D02*
G75*
G02X164750000Y-144750000I-1250000J0D01*
G01*
X79250000Y-42750000D02*
G75*
G02X76500000Y-40000000I0J2750000D01*
G01*
X75250000Y-38750000D02*
G75*
G02X76500000Y-40000000I0J-1250000D01*
G01*
X204000000Y-40000000D02*
G75*
G02X201250000Y-42750000I-2750000J0D01*
G01*
X204000000Y-40000000D02*
G75*
G02X205250000Y-38750000I1250000J0D01*
G01*
X217250000Y-143500000D02*
G75*
G02X216000000Y-144750000I-1250000J0D01*
G01*
X216000000Y-38750000D02*
G75*
G02X217250000Y-40000000I0J-1250000D01*
G01*
X60500000Y-144750000D02*
G75*
G02X59250000Y-143500000I0J1250000D01*
G01*
X59250000Y-40000000D02*
G75*
G02X60500000Y-38750000I1250000J0D01*
G01*
D11*
X124500000Y-131000000D02*
G75*
G03X124500000Y-131000000I-5000000J0D01*
G01*
X162500000Y-131000000D02*
G75*
G03X162500000Y-131000000I-5000000J0D01*
G01*
X200500000Y-131000000D02*
G75*
G03X200500000Y-131000000I-5000000J0D01*
G01*
D10*
X60500000Y-144750000D02*
X164750000Y-144750000D01*
X167250000Y-142250000D02*
X200250000Y-142250000D01*
X202760000Y-144750000D02*
X216000000Y-144750000D01*
X217250000Y-143500000D02*
X217250000Y-40000000D01*
X216000000Y-38750000D02*
X205249200Y-38750720D01*
X201248700Y-42751220D02*
X79249960Y-42751220D01*
X75249460Y-38750720D02*
X60500000Y-38750000D01*
X59250000Y-40000000D02*
X59250000Y-143500000D01*
M02*
