G04 #@! TF.GenerationSoftware,KiCad,Pcbnew,5.0.2-bee76a0~70~ubuntu18.04.1*
G04 #@! TF.CreationDate,2019-06-20T22:09:52+01:00*
G04 #@! TF.ProjectId,leaf_adapter,6c656166-5f61-4646-9170-7465722e6b69,rev?*
G04 #@! TF.SameCoordinates,Original*
G04 #@! TF.FileFunction,Legend,Top*
G04 #@! TF.FilePolarity,Positive*
%FSLAX46Y46*%
G04 Gerber Fmt 4.6, Leading zero omitted, Abs format (unit mm)*
G04 Created by KiCad (PCBNEW 5.0.2-bee76a0~70~ubuntu18.04.1) date Thu 20 Jun 2019 22:09:52 BST*
%MOMM*%
%LPD*%
G01*
G04 APERTURE LIST*
%ADD10C,0.254000*%
%ADD11C,0.120000*%
%ADD12C,0.150000*%
G04 APERTURE END LIST*
D10*
X159580000Y-73746840D02*
X159580000Y-76170000D01*
X159580000Y-73746840D02*
X161195440Y-76170000D01*
X161195440Y-73746840D02*
X161195440Y-76170000D01*
X162120000Y-73746840D02*
X162234300Y-73861140D01*
X162234300Y-73861140D02*
X162348600Y-73746840D01*
X162348600Y-73746840D02*
X162234300Y-73630000D01*
X162234300Y-73630000D02*
X162120000Y-73746840D01*
X162234300Y-74554560D02*
X162234300Y-76170000D01*
X164543160Y-74900000D02*
X164428860Y-74671400D01*
X164428860Y-74671400D02*
X164080880Y-74554560D01*
X164080880Y-74554560D02*
X163735440Y-74554560D01*
X163735440Y-74554560D02*
X163387460Y-74671400D01*
X163387460Y-74671400D02*
X163273160Y-74900000D01*
X163273160Y-74900000D02*
X163387460Y-75131140D01*
X163387460Y-75131140D02*
X163618600Y-75247980D01*
X163618600Y-75247980D02*
X164197720Y-75362280D01*
X164197720Y-75362280D02*
X164428860Y-75479120D01*
X164428860Y-75479120D02*
X164543160Y-75710260D01*
X164543160Y-75710260D02*
X164543160Y-75824560D01*
X164543160Y-75824560D02*
X164428860Y-76055700D01*
X164428860Y-76055700D02*
X164080880Y-76170000D01*
X164080880Y-76170000D02*
X163735440Y-76170000D01*
X163735440Y-76170000D02*
X163387460Y-76055700D01*
X163387460Y-76055700D02*
X163273160Y-75824560D01*
X166737720Y-74900000D02*
X166620880Y-74671400D01*
X166620880Y-74671400D02*
X166275440Y-74554560D01*
X166275440Y-74554560D02*
X165927460Y-74554560D01*
X165927460Y-74554560D02*
X165582020Y-74671400D01*
X165582020Y-74671400D02*
X165467720Y-74900000D01*
X165467720Y-74900000D02*
X165582020Y-75131140D01*
X165582020Y-75131140D02*
X165813160Y-75247980D01*
X165813160Y-75247980D02*
X166389740Y-75362280D01*
X166389740Y-75362280D02*
X166620880Y-75479120D01*
X166620880Y-75479120D02*
X166737720Y-75710260D01*
X166737720Y-75710260D02*
X166737720Y-75824560D01*
X166737720Y-75824560D02*
X166620880Y-76055700D01*
X166620880Y-76055700D02*
X166275440Y-76170000D01*
X166275440Y-76170000D02*
X165927460Y-76170000D01*
X165927460Y-76170000D02*
X165582020Y-76055700D01*
X165582020Y-76055700D02*
X165467720Y-75824560D01*
X169046580Y-74554560D02*
X169046580Y-76170000D01*
X169046580Y-74900000D02*
X168815440Y-74671400D01*
X168815440Y-74671400D02*
X168584300Y-74554560D01*
X168584300Y-74554560D02*
X168238860Y-74554560D01*
X168238860Y-74554560D02*
X168007720Y-74671400D01*
X168007720Y-74671400D02*
X167776580Y-74900000D01*
X167776580Y-74900000D02*
X167659740Y-75247980D01*
X167659740Y-75247980D02*
X167659740Y-75479120D01*
X167659740Y-75479120D02*
X167776580Y-75824560D01*
X167776580Y-75824560D02*
X168007720Y-76055700D01*
X168007720Y-76055700D02*
X168238860Y-76170000D01*
X168238860Y-76170000D02*
X168584300Y-76170000D01*
X168584300Y-76170000D02*
X168815440Y-76055700D01*
X168815440Y-76055700D02*
X169046580Y-75824560D01*
X169968600Y-74554560D02*
X169968600Y-76170000D01*
X169968600Y-75016840D02*
X170316580Y-74671400D01*
X170316580Y-74671400D02*
X170547720Y-74554560D01*
X170547720Y-74554560D02*
X170893160Y-74554560D01*
X170893160Y-74554560D02*
X171124300Y-74671400D01*
X171124300Y-74671400D02*
X171238600Y-75016840D01*
X171238600Y-75016840D02*
X171238600Y-76170000D01*
X174009740Y-73746840D02*
X174009740Y-76170000D01*
X174009740Y-76170000D02*
X175396580Y-76170000D01*
X176318600Y-75247980D02*
X177705440Y-75247980D01*
X177705440Y-75247980D02*
X177705440Y-75016840D01*
X177705440Y-75016840D02*
X177588600Y-74785700D01*
X177588600Y-74785700D02*
X177474300Y-74671400D01*
X177474300Y-74671400D02*
X177243160Y-74554560D01*
X177243160Y-74554560D02*
X176897720Y-74554560D01*
X176897720Y-74554560D02*
X176666580Y-74671400D01*
X176666580Y-74671400D02*
X176435440Y-74900000D01*
X176435440Y-74900000D02*
X176318600Y-75247980D01*
X176318600Y-75247980D02*
X176318600Y-75479120D01*
X176318600Y-75479120D02*
X176435440Y-75824560D01*
X176435440Y-75824560D02*
X176666580Y-76055700D01*
X176666580Y-76055700D02*
X176897720Y-76170000D01*
X176897720Y-76170000D02*
X177243160Y-76170000D01*
X177243160Y-76170000D02*
X177474300Y-76055700D01*
X177474300Y-76055700D02*
X177705440Y-75824560D01*
X180014300Y-74554560D02*
X180014300Y-76170000D01*
X180014300Y-74900000D02*
X179783160Y-74671400D01*
X179783160Y-74671400D02*
X179552020Y-74554560D01*
X179552020Y-74554560D02*
X179206580Y-74554560D01*
X179206580Y-74554560D02*
X178975440Y-74671400D01*
X178975440Y-74671400D02*
X178744300Y-74900000D01*
X178744300Y-74900000D02*
X178630000Y-75247980D01*
X178630000Y-75247980D02*
X178630000Y-75479120D01*
X178630000Y-75479120D02*
X178744300Y-75824560D01*
X178744300Y-75824560D02*
X178975440Y-76055700D01*
X178975440Y-76055700D02*
X179206580Y-76170000D01*
X179206580Y-76170000D02*
X179552020Y-76170000D01*
X179552020Y-76170000D02*
X179783160Y-76055700D01*
X179783160Y-76055700D02*
X180014300Y-75824560D01*
X181860880Y-73746840D02*
X181629740Y-73746840D01*
X181629740Y-73746840D02*
X181398600Y-73861140D01*
X181398600Y-73861140D02*
X181284300Y-74209120D01*
X181284300Y-74209120D02*
X181284300Y-76170000D01*
X180938860Y-74554560D02*
X181746580Y-74554560D01*
X185556580Y-73746840D02*
X184632020Y-76170000D01*
X185556580Y-73746840D02*
X186478600Y-76170000D01*
X184977460Y-75362280D02*
X186133160Y-75362280D01*
X188787460Y-73746840D02*
X188787460Y-76170000D01*
X188787460Y-74900000D02*
X188558860Y-74671400D01*
X188558860Y-74671400D02*
X188327720Y-74554560D01*
X188327720Y-74554560D02*
X187979740Y-74554560D01*
X187979740Y-74554560D02*
X187748600Y-74671400D01*
X187748600Y-74671400D02*
X187517460Y-74900000D01*
X187517460Y-74900000D02*
X187403160Y-75247980D01*
X187403160Y-75247980D02*
X187403160Y-75479120D01*
X187403160Y-75479120D02*
X187517460Y-75824560D01*
X187517460Y-75824560D02*
X187748600Y-76055700D01*
X187748600Y-76055700D02*
X187979740Y-76170000D01*
X187979740Y-76170000D02*
X188327720Y-76170000D01*
X188327720Y-76170000D02*
X188558860Y-76055700D01*
X188558860Y-76055700D02*
X188787460Y-75824560D01*
X191098860Y-74554560D02*
X191098860Y-76170000D01*
X191098860Y-74900000D02*
X190867720Y-74671400D01*
X190867720Y-74671400D02*
X190636580Y-74554560D01*
X190636580Y-74554560D02*
X190288600Y-74554560D01*
X190288600Y-74554560D02*
X190057460Y-74671400D01*
X190057460Y-74671400D02*
X189828860Y-74900000D01*
X189828860Y-74900000D02*
X189712020Y-75247980D01*
X189712020Y-75247980D02*
X189712020Y-75479120D01*
X189712020Y-75479120D02*
X189828860Y-75824560D01*
X189828860Y-75824560D02*
X190057460Y-76055700D01*
X190057460Y-76055700D02*
X190288600Y-76170000D01*
X190288600Y-76170000D02*
X190636580Y-76170000D01*
X190636580Y-76170000D02*
X190867720Y-76055700D01*
X190867720Y-76055700D02*
X191098860Y-75824560D01*
X192020880Y-74554560D02*
X192020880Y-76980260D01*
X192020880Y-74900000D02*
X192252020Y-74671400D01*
X192252020Y-74671400D02*
X192483160Y-74554560D01*
X192483160Y-74554560D02*
X192828600Y-74554560D01*
X192828600Y-74554560D02*
X193059740Y-74671400D01*
X193059740Y-74671400D02*
X193290880Y-74900000D01*
X193290880Y-74900000D02*
X193407720Y-75247980D01*
X193407720Y-75247980D02*
X193407720Y-75479120D01*
X193407720Y-75479120D02*
X193290880Y-75824560D01*
X193290880Y-75824560D02*
X193059740Y-76055700D01*
X193059740Y-76055700D02*
X192828600Y-76170000D01*
X192828600Y-76170000D02*
X192483160Y-76170000D01*
X192483160Y-76170000D02*
X192252020Y-76055700D01*
X192252020Y-76055700D02*
X192020880Y-75824560D01*
X194677720Y-73746840D02*
X194677720Y-75710260D01*
X194677720Y-75710260D02*
X194792020Y-76055700D01*
X194792020Y-76055700D02*
X195023160Y-76170000D01*
X195023160Y-76170000D02*
X195254300Y-76170000D01*
X194329740Y-74554560D02*
X195137460Y-74554560D01*
X196178860Y-75247980D02*
X197563160Y-75247980D01*
X197563160Y-75247980D02*
X197563160Y-75016840D01*
X197563160Y-75016840D02*
X197448860Y-74785700D01*
X197448860Y-74785700D02*
X197332020Y-74671400D01*
X197332020Y-74671400D02*
X197100880Y-74554560D01*
X197100880Y-74554560D02*
X196755440Y-74554560D01*
X196755440Y-74554560D02*
X196524300Y-74671400D01*
X196524300Y-74671400D02*
X196293160Y-74900000D01*
X196293160Y-74900000D02*
X196178860Y-75247980D01*
X196178860Y-75247980D02*
X196178860Y-75479120D01*
X196178860Y-75479120D02*
X196293160Y-75824560D01*
X196293160Y-75824560D02*
X196524300Y-76055700D01*
X196524300Y-76055700D02*
X196755440Y-76170000D01*
X196755440Y-76170000D02*
X197100880Y-76170000D01*
X197100880Y-76170000D02*
X197332020Y-76055700D01*
X197332020Y-76055700D02*
X197563160Y-75824560D01*
X198487720Y-74554560D02*
X198487720Y-76170000D01*
X198487720Y-75247980D02*
X198602020Y-74900000D01*
X198602020Y-74900000D02*
X198833160Y-74671400D01*
X198833160Y-74671400D02*
X199064300Y-74554560D01*
X199064300Y-74554560D02*
X199409740Y-74554560D01*
X202180880Y-73746840D02*
X202180880Y-76170000D01*
X202180880Y-73746840D02*
X203219740Y-73746840D01*
X203219740Y-73746840D02*
X203567720Y-73861140D01*
X203567720Y-73861140D02*
X203682020Y-73977980D01*
X203682020Y-73977980D02*
X203798860Y-74209120D01*
X203798860Y-74209120D02*
X203798860Y-74440260D01*
X203798860Y-74440260D02*
X203682020Y-74671400D01*
X203682020Y-74671400D02*
X203567720Y-74785700D01*
X203567720Y-74785700D02*
X203219740Y-74900000D01*
X202180880Y-74900000D02*
X203219740Y-74900000D01*
X203219740Y-74900000D02*
X203567720Y-75016840D01*
X203567720Y-75016840D02*
X203682020Y-75131140D01*
X203682020Y-75131140D02*
X203798860Y-75362280D01*
X203798860Y-75362280D02*
X203798860Y-75710260D01*
X203798860Y-75710260D02*
X203682020Y-75941400D01*
X203682020Y-75941400D02*
X203567720Y-76055700D01*
X203567720Y-76055700D02*
X203219740Y-76170000D01*
X203219740Y-76170000D02*
X202180880Y-76170000D01*
X205297460Y-74554560D02*
X205068860Y-74671400D01*
X205068860Y-74671400D02*
X204837720Y-74900000D01*
X204837720Y-74900000D02*
X204720880Y-75247980D01*
X204720880Y-75247980D02*
X204720880Y-75479120D01*
X204720880Y-75479120D02*
X204837720Y-75824560D01*
X204837720Y-75824560D02*
X205068860Y-76055700D01*
X205068860Y-76055700D02*
X205297460Y-76170000D01*
X205297460Y-76170000D02*
X205645440Y-76170000D01*
X205645440Y-76170000D02*
X205876580Y-76055700D01*
X205876580Y-76055700D02*
X206107720Y-75824560D01*
X206107720Y-75824560D02*
X206222020Y-75479120D01*
X206222020Y-75479120D02*
X206222020Y-75247980D01*
X206222020Y-75247980D02*
X206107720Y-74900000D01*
X206107720Y-74900000D02*
X205876580Y-74671400D01*
X205876580Y-74671400D02*
X205645440Y-74554560D01*
X205645440Y-74554560D02*
X205297460Y-74554560D01*
X208530880Y-74554560D02*
X208530880Y-76170000D01*
X208530880Y-74900000D02*
X208299740Y-74671400D01*
X208299740Y-74671400D02*
X208068600Y-74554560D01*
X208068600Y-74554560D02*
X207723160Y-74554560D01*
X207723160Y-74554560D02*
X207492020Y-74671400D01*
X207492020Y-74671400D02*
X207260880Y-74900000D01*
X207260880Y-74900000D02*
X207146580Y-75247980D01*
X207146580Y-75247980D02*
X207146580Y-75479120D01*
X207146580Y-75479120D02*
X207260880Y-75824560D01*
X207260880Y-75824560D02*
X207492020Y-76055700D01*
X207492020Y-76055700D02*
X207723160Y-76170000D01*
X207723160Y-76170000D02*
X208068600Y-76170000D01*
X208068600Y-76170000D02*
X208299740Y-76055700D01*
X208299740Y-76055700D02*
X208530880Y-75824560D01*
X209455440Y-74554560D02*
X209455440Y-76170000D01*
X209455440Y-75247980D02*
X209569740Y-74900000D01*
X209569740Y-74900000D02*
X209800880Y-74671400D01*
X209800880Y-74671400D02*
X210032020Y-74554560D01*
X210032020Y-74554560D02*
X210377460Y-74554560D01*
X212688860Y-73746840D02*
X212688860Y-76170000D01*
X212688860Y-74900000D02*
X212457720Y-74671400D01*
X212457720Y-74671400D02*
X212226580Y-74554560D01*
X212226580Y-74554560D02*
X211878600Y-74554560D01*
X211878600Y-74554560D02*
X211647460Y-74671400D01*
X211647460Y-74671400D02*
X211418860Y-74900000D01*
X211418860Y-74900000D02*
X211302020Y-75247980D01*
X211302020Y-75247980D02*
X211302020Y-75479120D01*
X211302020Y-75479120D02*
X211418860Y-75824560D01*
X211418860Y-75824560D02*
X211647460Y-76055700D01*
X211647460Y-76055700D02*
X211878600Y-76170000D01*
X211878600Y-76170000D02*
X212226580Y-76170000D01*
X212226580Y-76170000D02*
X212457720Y-76055700D01*
X212457720Y-76055700D02*
X212688860Y-75824560D01*
X165930000Y-78364560D02*
X166389740Y-79980000D01*
X166852020Y-78364560D02*
X166389740Y-79980000D01*
X166852020Y-78364560D02*
X167314300Y-79980000D01*
X167776580Y-78364560D02*
X167314300Y-79980000D01*
X168698600Y-78364560D02*
X169160880Y-79980000D01*
X169623160Y-78364560D02*
X169160880Y-79980000D01*
X169623160Y-78364560D02*
X170085440Y-79980000D01*
X170547720Y-78364560D02*
X170085440Y-79980000D01*
X171469740Y-78364560D02*
X171932020Y-79980000D01*
X172394300Y-78364560D02*
X171932020Y-79980000D01*
X172394300Y-78364560D02*
X172856580Y-79980000D01*
X173318860Y-78364560D02*
X172856580Y-79980000D01*
X174357720Y-79751400D02*
X174240880Y-79865700D01*
X174240880Y-79865700D02*
X174357720Y-79980000D01*
X174357720Y-79980000D02*
X174472020Y-79865700D01*
X174472020Y-79865700D02*
X174357720Y-79751400D01*
X175973160Y-78364560D02*
X175742020Y-78481400D01*
X175742020Y-78481400D02*
X175510880Y-78710000D01*
X175510880Y-78710000D02*
X175396580Y-79057980D01*
X175396580Y-79057980D02*
X175396580Y-79289120D01*
X175396580Y-79289120D02*
X175510880Y-79634560D01*
X175510880Y-79634560D02*
X175742020Y-79865700D01*
X175742020Y-79865700D02*
X175973160Y-79980000D01*
X175973160Y-79980000D02*
X176318600Y-79980000D01*
X176318600Y-79980000D02*
X176549740Y-79865700D01*
X176549740Y-79865700D02*
X176780880Y-79634560D01*
X176780880Y-79634560D02*
X176897720Y-79289120D01*
X176897720Y-79289120D02*
X176897720Y-79057980D01*
X176897720Y-79057980D02*
X176780880Y-78710000D01*
X176780880Y-78710000D02*
X176549740Y-78481400D01*
X176549740Y-78481400D02*
X176318600Y-78364560D01*
X176318600Y-78364560D02*
X175973160Y-78364560D01*
X177819740Y-78364560D02*
X177819740Y-80790260D01*
X177819740Y-78710000D02*
X178050880Y-78481400D01*
X178050880Y-78481400D02*
X178282020Y-78364560D01*
X178282020Y-78364560D02*
X178627460Y-78364560D01*
X178627460Y-78364560D02*
X178858600Y-78481400D01*
X178858600Y-78481400D02*
X179089740Y-78710000D01*
X179089740Y-78710000D02*
X179206580Y-79057980D01*
X179206580Y-79057980D02*
X179206580Y-79289120D01*
X179206580Y-79289120D02*
X179089740Y-79634560D01*
X179089740Y-79634560D02*
X178858600Y-79865700D01*
X178858600Y-79865700D02*
X178627460Y-79980000D01*
X178627460Y-79980000D02*
X178282020Y-79980000D01*
X178282020Y-79980000D02*
X178050880Y-79865700D01*
X178050880Y-79865700D02*
X177819740Y-79634560D01*
X180128600Y-79057980D02*
X181515440Y-79057980D01*
X181515440Y-79057980D02*
X181515440Y-78826840D01*
X181515440Y-78826840D02*
X181398600Y-78595700D01*
X181398600Y-78595700D02*
X181284300Y-78481400D01*
X181284300Y-78481400D02*
X181053160Y-78364560D01*
X181053160Y-78364560D02*
X180707720Y-78364560D01*
X180707720Y-78364560D02*
X180476580Y-78481400D01*
X180476580Y-78481400D02*
X180245440Y-78710000D01*
X180245440Y-78710000D02*
X180128600Y-79057980D01*
X180128600Y-79057980D02*
X180128600Y-79289120D01*
X180128600Y-79289120D02*
X180245440Y-79634560D01*
X180245440Y-79634560D02*
X180476580Y-79865700D01*
X180476580Y-79865700D02*
X180707720Y-79980000D01*
X180707720Y-79980000D02*
X181053160Y-79980000D01*
X181053160Y-79980000D02*
X181284300Y-79865700D01*
X181284300Y-79865700D02*
X181515440Y-79634560D01*
X182440000Y-78364560D02*
X182440000Y-79980000D01*
X182440000Y-78826840D02*
X182785440Y-78481400D01*
X182785440Y-78481400D02*
X183016580Y-78364560D01*
X183016580Y-78364560D02*
X183362020Y-78364560D01*
X183362020Y-78364560D02*
X183593160Y-78481400D01*
X183593160Y-78481400D02*
X183710000Y-78826840D01*
X183710000Y-78826840D02*
X183710000Y-79980000D01*
X184632020Y-77556840D02*
X184748860Y-77671140D01*
X184748860Y-77671140D02*
X184863160Y-77556840D01*
X184863160Y-77556840D02*
X184748860Y-77440000D01*
X184748860Y-77440000D02*
X184632020Y-77556840D01*
X184748860Y-78364560D02*
X184748860Y-79980000D01*
X185787720Y-78364560D02*
X185787720Y-79980000D01*
X185787720Y-78826840D02*
X186133160Y-78481400D01*
X186133160Y-78481400D02*
X186364300Y-78364560D01*
X186364300Y-78364560D02*
X186709740Y-78364560D01*
X186709740Y-78364560D02*
X186940880Y-78481400D01*
X186940880Y-78481400D02*
X187057720Y-78826840D01*
X187057720Y-78826840D02*
X187057720Y-79980000D01*
X187979740Y-78364560D02*
X188673160Y-79980000D01*
X189366580Y-78364560D02*
X188673160Y-79980000D01*
X190288600Y-79057980D02*
X191675440Y-79057980D01*
X191675440Y-79057980D02*
X191675440Y-78826840D01*
X191675440Y-78826840D02*
X191558600Y-78595700D01*
X191558600Y-78595700D02*
X191444300Y-78481400D01*
X191444300Y-78481400D02*
X191213160Y-78364560D01*
X191213160Y-78364560D02*
X190867720Y-78364560D01*
X190867720Y-78364560D02*
X190636580Y-78481400D01*
X190636580Y-78481400D02*
X190405440Y-78710000D01*
X190405440Y-78710000D02*
X190288600Y-79057980D01*
X190288600Y-79057980D02*
X190288600Y-79289120D01*
X190288600Y-79289120D02*
X190405440Y-79634560D01*
X190405440Y-79634560D02*
X190636580Y-79865700D01*
X190636580Y-79865700D02*
X190867720Y-79980000D01*
X190867720Y-79980000D02*
X191213160Y-79980000D01*
X191213160Y-79980000D02*
X191444300Y-79865700D01*
X191444300Y-79865700D02*
X191675440Y-79634560D01*
X192600000Y-78364560D02*
X192600000Y-79980000D01*
X192600000Y-79057980D02*
X192714300Y-78710000D01*
X192714300Y-78710000D02*
X192945440Y-78481400D01*
X192945440Y-78481400D02*
X193176580Y-78364560D01*
X193176580Y-78364560D02*
X193522020Y-78364560D01*
X194792020Y-77556840D02*
X194792020Y-79520260D01*
X194792020Y-79520260D02*
X194908860Y-79865700D01*
X194908860Y-79865700D02*
X195137460Y-79980000D01*
X195137460Y-79980000D02*
X195368600Y-79980000D01*
X194446580Y-78364560D02*
X195254300Y-78364560D01*
X196293160Y-79057980D02*
X197677460Y-79057980D01*
X197677460Y-79057980D02*
X197677460Y-78826840D01*
X197677460Y-78826840D02*
X197563160Y-78595700D01*
X197563160Y-78595700D02*
X197448860Y-78481400D01*
X197448860Y-78481400D02*
X197217720Y-78364560D01*
X197217720Y-78364560D02*
X196869740Y-78364560D01*
X196869740Y-78364560D02*
X196638600Y-78481400D01*
X196638600Y-78481400D02*
X196407460Y-78710000D01*
X196407460Y-78710000D02*
X196293160Y-79057980D01*
X196293160Y-79057980D02*
X196293160Y-79289120D01*
X196293160Y-79289120D02*
X196407460Y-79634560D01*
X196407460Y-79634560D02*
X196638600Y-79865700D01*
X196638600Y-79865700D02*
X196869740Y-79980000D01*
X196869740Y-79980000D02*
X197217720Y-79980000D01*
X197217720Y-79980000D02*
X197448860Y-79865700D01*
X197448860Y-79865700D02*
X197677460Y-79634560D01*
X198602020Y-78364560D02*
X198602020Y-79980000D01*
X198602020Y-79057980D02*
X198718860Y-78710000D01*
X198718860Y-78710000D02*
X198947460Y-78481400D01*
X198947460Y-78481400D02*
X199178600Y-78364560D01*
X199178600Y-78364560D02*
X199526580Y-78364560D01*
X200565440Y-79751400D02*
X200448600Y-79865700D01*
X200448600Y-79865700D02*
X200565440Y-79980000D01*
X200565440Y-79980000D02*
X200679740Y-79865700D01*
X200679740Y-79865700D02*
X200565440Y-79751400D01*
X202180880Y-78364560D02*
X201949740Y-78481400D01*
X201949740Y-78481400D02*
X201718600Y-78710000D01*
X201718600Y-78710000D02*
X201604300Y-79057980D01*
X201604300Y-79057980D02*
X201604300Y-79289120D01*
X201604300Y-79289120D02*
X201718600Y-79634560D01*
X201718600Y-79634560D02*
X201949740Y-79865700D01*
X201949740Y-79865700D02*
X202180880Y-79980000D01*
X202180880Y-79980000D02*
X202528860Y-79980000D01*
X202528860Y-79980000D02*
X202757460Y-79865700D01*
X202757460Y-79865700D02*
X202988600Y-79634560D01*
X202988600Y-79634560D02*
X203105440Y-79289120D01*
X203105440Y-79289120D02*
X203105440Y-79057980D01*
X203105440Y-79057980D02*
X202988600Y-78710000D01*
X202988600Y-78710000D02*
X202757460Y-78481400D01*
X202757460Y-78481400D02*
X202528860Y-78364560D01*
X202528860Y-78364560D02*
X202180880Y-78364560D01*
X204030000Y-78364560D02*
X204030000Y-79980000D01*
X204030000Y-79057980D02*
X204144300Y-78710000D01*
X204144300Y-78710000D02*
X204375440Y-78481400D01*
X204375440Y-78481400D02*
X204606580Y-78364560D01*
X204606580Y-78364560D02*
X204952020Y-78364560D01*
X207260880Y-78364560D02*
X207260880Y-80211140D01*
X207260880Y-80211140D02*
X207146580Y-80559120D01*
X207146580Y-80559120D02*
X207029740Y-80673420D01*
X207029740Y-80673420D02*
X206798600Y-80790260D01*
X206798600Y-80790260D02*
X206453160Y-80790260D01*
X206453160Y-80790260D02*
X206222020Y-80673420D01*
X207260880Y-78710000D02*
X207029740Y-78481400D01*
X207029740Y-78481400D02*
X206798600Y-78364560D01*
X206798600Y-78364560D02*
X206453160Y-78364560D01*
X206453160Y-78364560D02*
X206222020Y-78481400D01*
X206222020Y-78481400D02*
X205990880Y-78710000D01*
X205990880Y-78710000D02*
X205876580Y-79057980D01*
X205876580Y-79057980D02*
X205876580Y-79289120D01*
X205876580Y-79289120D02*
X205990880Y-79634560D01*
X205990880Y-79634560D02*
X206222020Y-79865700D01*
X206222020Y-79865700D02*
X206453160Y-79980000D01*
X206453160Y-79980000D02*
X206798600Y-79980000D01*
X206798600Y-79980000D02*
X207029740Y-79865700D01*
X207029740Y-79865700D02*
X207260880Y-79634560D01*
X160387720Y-80904560D02*
X160156580Y-81135700D01*
X160156580Y-81135700D02*
X159925440Y-81481140D01*
X159925440Y-81481140D02*
X159694300Y-81943420D01*
X159694300Y-81943420D02*
X159580000Y-82520000D01*
X159580000Y-82520000D02*
X159580000Y-82982280D01*
X159580000Y-82982280D02*
X159694300Y-83561400D01*
X159694300Y-83561400D02*
X159925440Y-84021140D01*
X159925440Y-84021140D02*
X160156580Y-84369120D01*
X160156580Y-84369120D02*
X160387720Y-84600260D01*
X162696580Y-82520000D02*
X162465440Y-82291400D01*
X162465440Y-82291400D02*
X162234300Y-82174560D01*
X162234300Y-82174560D02*
X161888860Y-82174560D01*
X161888860Y-82174560D02*
X161657720Y-82291400D01*
X161657720Y-82291400D02*
X161426580Y-82520000D01*
X161426580Y-82520000D02*
X161309740Y-82867980D01*
X161309740Y-82867980D02*
X161309740Y-83099120D01*
X161309740Y-83099120D02*
X161426580Y-83444560D01*
X161426580Y-83444560D02*
X161657720Y-83675700D01*
X161657720Y-83675700D02*
X161888860Y-83790000D01*
X161888860Y-83790000D02*
X162234300Y-83790000D01*
X162234300Y-83790000D02*
X162465440Y-83675700D01*
X162465440Y-83675700D02*
X162696580Y-83444560D01*
X163618600Y-80904560D02*
X163849740Y-81135700D01*
X163849740Y-81135700D02*
X164080880Y-81481140D01*
X164080880Y-81481140D02*
X164312020Y-81943420D01*
X164312020Y-81943420D02*
X164428860Y-82520000D01*
X164428860Y-82520000D02*
X164428860Y-82982280D01*
X164428860Y-82982280D02*
X164312020Y-83561400D01*
X164312020Y-83561400D02*
X164080880Y-84021140D01*
X164080880Y-84021140D02*
X163849740Y-84369120D01*
X163849740Y-84369120D02*
X163618600Y-84600260D01*
X167314300Y-81943420D02*
X167314300Y-81829120D01*
X167314300Y-81829120D02*
X167428600Y-81597980D01*
X167428600Y-81597980D02*
X167545440Y-81481140D01*
X167545440Y-81481140D02*
X167776580Y-81366840D01*
X167776580Y-81366840D02*
X168238860Y-81366840D01*
X168238860Y-81366840D02*
X168470000Y-81481140D01*
X168470000Y-81481140D02*
X168584300Y-81597980D01*
X168584300Y-81597980D02*
X168698600Y-81829120D01*
X168698600Y-81829120D02*
X168698600Y-82060260D01*
X168698600Y-82060260D02*
X168584300Y-82291400D01*
X168584300Y-82291400D02*
X168353160Y-82636840D01*
X168353160Y-82636840D02*
X167200000Y-83790000D01*
X167200000Y-83790000D02*
X168815440Y-83790000D01*
X170430880Y-81366840D02*
X170085440Y-81481140D01*
X170085440Y-81481140D02*
X169854300Y-81829120D01*
X169854300Y-81829120D02*
X169740000Y-82405700D01*
X169740000Y-82405700D02*
X169740000Y-82751140D01*
X169740000Y-82751140D02*
X169854300Y-83330260D01*
X169854300Y-83330260D02*
X170085440Y-83675700D01*
X170085440Y-83675700D02*
X170430880Y-83790000D01*
X170430880Y-83790000D02*
X170662020Y-83790000D01*
X170662020Y-83790000D02*
X171010000Y-83675700D01*
X171010000Y-83675700D02*
X171238600Y-83330260D01*
X171238600Y-83330260D02*
X171355440Y-82751140D01*
X171355440Y-82751140D02*
X171355440Y-82405700D01*
X171355440Y-82405700D02*
X171238600Y-81829120D01*
X171238600Y-81829120D02*
X171010000Y-81481140D01*
X171010000Y-81481140D02*
X170662020Y-81366840D01*
X170662020Y-81366840D02*
X170430880Y-81366840D01*
X172280000Y-81829120D02*
X172508600Y-81712280D01*
X172508600Y-81712280D02*
X172856580Y-81366840D01*
X172856580Y-81366840D02*
X172856580Y-83790000D01*
X174357720Y-81366840D02*
X174009740Y-81481140D01*
X174009740Y-81481140D02*
X173895440Y-81712280D01*
X173895440Y-81712280D02*
X173895440Y-81943420D01*
X173895440Y-81943420D02*
X174009740Y-82174560D01*
X174009740Y-82174560D02*
X174240880Y-82291400D01*
X174240880Y-82291400D02*
X174703160Y-82405700D01*
X174703160Y-82405700D02*
X175048600Y-82520000D01*
X175048600Y-82520000D02*
X175279740Y-82751140D01*
X175279740Y-82751140D02*
X175396580Y-82982280D01*
X175396580Y-82982280D02*
X175396580Y-83330260D01*
X175396580Y-83330260D02*
X175279740Y-83561400D01*
X175279740Y-83561400D02*
X175165440Y-83675700D01*
X175165440Y-83675700D02*
X174817460Y-83790000D01*
X174817460Y-83790000D02*
X174357720Y-83790000D01*
X174357720Y-83790000D02*
X174009740Y-83675700D01*
X174009740Y-83675700D02*
X173895440Y-83561400D01*
X173895440Y-83561400D02*
X173778600Y-83330260D01*
X173778600Y-83330260D02*
X173778600Y-82982280D01*
X173778600Y-82982280D02*
X173895440Y-82751140D01*
X173895440Y-82751140D02*
X174126580Y-82520000D01*
X174126580Y-82520000D02*
X174472020Y-82405700D01*
X174472020Y-82405700D02*
X174934300Y-82291400D01*
X174934300Y-82291400D02*
X175165440Y-82174560D01*
X175165440Y-82174560D02*
X175279740Y-81943420D01*
X175279740Y-81943420D02*
X175279740Y-81712280D01*
X175279740Y-81712280D02*
X175165440Y-81481140D01*
X175165440Y-81481140D02*
X174817460Y-81366840D01*
X174817460Y-81366840D02*
X174357720Y-81366840D01*
X179320880Y-81366840D02*
X179320880Y-83213420D01*
X179320880Y-83213420D02*
X179206580Y-83561400D01*
X179206580Y-83561400D02*
X179089740Y-83675700D01*
X179089740Y-83675700D02*
X178858600Y-83790000D01*
X178858600Y-83790000D02*
X178627460Y-83790000D01*
X178627460Y-83790000D02*
X178398860Y-83675700D01*
X178398860Y-83675700D02*
X178282020Y-83561400D01*
X178282020Y-83561400D02*
X178167720Y-83213420D01*
X178167720Y-83213420D02*
X178167720Y-82982280D01*
X180822020Y-82174560D02*
X180590880Y-82291400D01*
X180590880Y-82291400D02*
X180359740Y-82520000D01*
X180359740Y-82520000D02*
X180245440Y-82867980D01*
X180245440Y-82867980D02*
X180245440Y-83099120D01*
X180245440Y-83099120D02*
X180359740Y-83444560D01*
X180359740Y-83444560D02*
X180590880Y-83675700D01*
X180590880Y-83675700D02*
X180822020Y-83790000D01*
X180822020Y-83790000D02*
X181167460Y-83790000D01*
X181167460Y-83790000D02*
X181398600Y-83675700D01*
X181398600Y-83675700D02*
X181629740Y-83444560D01*
X181629740Y-83444560D02*
X181746580Y-83099120D01*
X181746580Y-83099120D02*
X181746580Y-82867980D01*
X181746580Y-82867980D02*
X181629740Y-82520000D01*
X181629740Y-82520000D02*
X181398600Y-82291400D01*
X181398600Y-82291400D02*
X181167460Y-82174560D01*
X181167460Y-82174560D02*
X180822020Y-82174560D01*
X182668600Y-81366840D02*
X182668600Y-83790000D01*
X182668600Y-82636840D02*
X183016580Y-82291400D01*
X183016580Y-82291400D02*
X183247720Y-82174560D01*
X183247720Y-82174560D02*
X183593160Y-82174560D01*
X183593160Y-82174560D02*
X183824300Y-82291400D01*
X183824300Y-82291400D02*
X183938600Y-82636840D01*
X183938600Y-82636840D02*
X183938600Y-83790000D01*
X186247460Y-82174560D02*
X186247460Y-83790000D01*
X186247460Y-82520000D02*
X186018860Y-82291400D01*
X186018860Y-82291400D02*
X185787720Y-82174560D01*
X185787720Y-82174560D02*
X185439740Y-82174560D01*
X185439740Y-82174560D02*
X185208600Y-82291400D01*
X185208600Y-82291400D02*
X184977460Y-82520000D01*
X184977460Y-82520000D02*
X184863160Y-82867980D01*
X184863160Y-82867980D02*
X184863160Y-83099120D01*
X184863160Y-83099120D02*
X184977460Y-83444560D01*
X184977460Y-83444560D02*
X185208600Y-83675700D01*
X185208600Y-83675700D02*
X185439740Y-83790000D01*
X185439740Y-83790000D02*
X185787720Y-83790000D01*
X185787720Y-83790000D02*
X186018860Y-83675700D01*
X186018860Y-83675700D02*
X186247460Y-83444560D01*
X187172020Y-82174560D02*
X187172020Y-83790000D01*
X187172020Y-82636840D02*
X187517460Y-82291400D01*
X187517460Y-82291400D02*
X187748600Y-82174560D01*
X187748600Y-82174560D02*
X188096580Y-82174560D01*
X188096580Y-82174560D02*
X188327720Y-82291400D01*
X188327720Y-82291400D02*
X188442020Y-82636840D01*
X188442020Y-82636840D02*
X188442020Y-83790000D01*
X189366580Y-82174560D02*
X189366580Y-83790000D01*
X189366580Y-82636840D02*
X189712020Y-82291400D01*
X189712020Y-82291400D02*
X189943160Y-82174560D01*
X189943160Y-82174560D02*
X190288600Y-82174560D01*
X190288600Y-82174560D02*
X190519740Y-82291400D01*
X190519740Y-82291400D02*
X190636580Y-82636840D01*
X190636580Y-82636840D02*
X190636580Y-83790000D01*
X191558600Y-82867980D02*
X192945440Y-82867980D01*
X192945440Y-82867980D02*
X192945440Y-82636840D01*
X192945440Y-82636840D02*
X192828600Y-82405700D01*
X192828600Y-82405700D02*
X192714300Y-82291400D01*
X192714300Y-82291400D02*
X192483160Y-82174560D01*
X192483160Y-82174560D02*
X192137720Y-82174560D01*
X192137720Y-82174560D02*
X191906580Y-82291400D01*
X191906580Y-82291400D02*
X191675440Y-82520000D01*
X191675440Y-82520000D02*
X191558600Y-82867980D01*
X191558600Y-82867980D02*
X191558600Y-83099120D01*
X191558600Y-83099120D02*
X191675440Y-83444560D01*
X191675440Y-83444560D02*
X191906580Y-83675700D01*
X191906580Y-83675700D02*
X192137720Y-83790000D01*
X192137720Y-83790000D02*
X192483160Y-83790000D01*
X192483160Y-83790000D02*
X192714300Y-83675700D01*
X192714300Y-83675700D02*
X192945440Y-83444560D01*
X195137460Y-82520000D02*
X195023160Y-82291400D01*
X195023160Y-82291400D02*
X194677720Y-82174560D01*
X194677720Y-82174560D02*
X194329740Y-82174560D01*
X194329740Y-82174560D02*
X193984300Y-82291400D01*
X193984300Y-82291400D02*
X193867460Y-82520000D01*
X193867460Y-82520000D02*
X193984300Y-82751140D01*
X193984300Y-82751140D02*
X194215440Y-82867980D01*
X194215440Y-82867980D02*
X194792020Y-82982280D01*
X194792020Y-82982280D02*
X195023160Y-83099120D01*
X195023160Y-83099120D02*
X195137460Y-83330260D01*
X195137460Y-83330260D02*
X195137460Y-83444560D01*
X195137460Y-83444560D02*
X195023160Y-83675700D01*
X195023160Y-83675700D02*
X194677720Y-83790000D01*
X194677720Y-83790000D02*
X194329740Y-83790000D01*
X194329740Y-83790000D02*
X193984300Y-83675700D01*
X193984300Y-83675700D02*
X193867460Y-83444560D01*
X197908600Y-81366840D02*
X197908600Y-83790000D01*
X199526580Y-81366840D02*
X199526580Y-83790000D01*
X197908600Y-82520000D02*
X199526580Y-82520000D01*
X200448600Y-82174560D02*
X200448600Y-83330260D01*
X200448600Y-83330260D02*
X200565440Y-83675700D01*
X200565440Y-83675700D02*
X200796580Y-83790000D01*
X200796580Y-83790000D02*
X201142020Y-83790000D01*
X201142020Y-83790000D02*
X201373160Y-83675700D01*
X201373160Y-83675700D02*
X201718600Y-83330260D01*
X201718600Y-82174560D02*
X201718600Y-83790000D01*
X202643160Y-82867980D02*
X204027460Y-82867980D01*
X204027460Y-82867980D02*
X204027460Y-82636840D01*
X204027460Y-82636840D02*
X203913160Y-82405700D01*
X203913160Y-82405700D02*
X203798860Y-82291400D01*
X203798860Y-82291400D02*
X203567720Y-82174560D01*
X203567720Y-82174560D02*
X203219740Y-82174560D01*
X203219740Y-82174560D02*
X202988600Y-82291400D01*
X202988600Y-82291400D02*
X202757460Y-82520000D01*
X202757460Y-82520000D02*
X202643160Y-82867980D01*
X202643160Y-82867980D02*
X202643160Y-83099120D01*
X202643160Y-83099120D02*
X202757460Y-83444560D01*
X202757460Y-83444560D02*
X202988600Y-83675700D01*
X202988600Y-83675700D02*
X203219740Y-83790000D01*
X203219740Y-83790000D02*
X203567720Y-83790000D01*
X203567720Y-83790000D02*
X203798860Y-83675700D01*
X203798860Y-83675700D02*
X204027460Y-83444560D01*
X204952020Y-81366840D02*
X204952020Y-83790000D01*
X204952020Y-82520000D02*
X205183160Y-82291400D01*
X205183160Y-82291400D02*
X205414300Y-82174560D01*
X205414300Y-82174560D02*
X205759740Y-82174560D01*
X205759740Y-82174560D02*
X205990880Y-82291400D01*
X205990880Y-82291400D02*
X206222020Y-82520000D01*
X206222020Y-82520000D02*
X206338860Y-82867980D01*
X206338860Y-82867980D02*
X206338860Y-83099120D01*
X206338860Y-83099120D02*
X206222020Y-83444560D01*
X206222020Y-83444560D02*
X205990880Y-83675700D01*
X205990880Y-83675700D02*
X205759740Y-83790000D01*
X205759740Y-83790000D02*
X205414300Y-83790000D01*
X205414300Y-83790000D02*
X205183160Y-83675700D01*
X205183160Y-83675700D02*
X204952020Y-83444560D01*
X207260880Y-82174560D02*
X207260880Y-83790000D01*
X207260880Y-82636840D02*
X207608860Y-82291400D01*
X207608860Y-82291400D02*
X207837460Y-82174560D01*
X207837460Y-82174560D02*
X208185440Y-82174560D01*
X208185440Y-82174560D02*
X208416580Y-82291400D01*
X208416580Y-82291400D02*
X208530880Y-82636840D01*
X208530880Y-82636840D02*
X208530880Y-83790000D01*
X209455440Y-82867980D02*
X210839740Y-82867980D01*
X210839740Y-82867980D02*
X210839740Y-82636840D01*
X210839740Y-82636840D02*
X210725440Y-82405700D01*
X210725440Y-82405700D02*
X210608600Y-82291400D01*
X210608600Y-82291400D02*
X210377460Y-82174560D01*
X210377460Y-82174560D02*
X210032020Y-82174560D01*
X210032020Y-82174560D02*
X209800880Y-82291400D01*
X209800880Y-82291400D02*
X209569740Y-82520000D01*
X209569740Y-82520000D02*
X209455440Y-82867980D01*
X209455440Y-82867980D02*
X209455440Y-83099120D01*
X209455440Y-83099120D02*
X209569740Y-83444560D01*
X209569740Y-83444560D02*
X209800880Y-83675700D01*
X209800880Y-83675700D02*
X210032020Y-83790000D01*
X210032020Y-83790000D02*
X210377460Y-83790000D01*
X210377460Y-83790000D02*
X210608600Y-83675700D01*
X210608600Y-83675700D02*
X210839740Y-83444560D01*
X211764300Y-82174560D02*
X211764300Y-83790000D01*
X211764300Y-82867980D02*
X211878600Y-82520000D01*
X211878600Y-82520000D02*
X212109740Y-82291400D01*
X212109740Y-82291400D02*
X212340880Y-82174560D01*
X212340880Y-82174560D02*
X212688860Y-82174560D01*
D11*
G04 #@! TO.C,JP5*
X133020000Y-119330000D02*
X133020000Y-88790000D01*
X133020000Y-88790000D02*
X138220000Y-88790000D01*
X138220000Y-88790000D02*
X138220000Y-121930000D01*
X138220000Y-121930000D02*
X135620000Y-121930000D01*
X135620000Y-121930000D02*
X135620000Y-119330000D01*
X135620000Y-119330000D02*
X133020000Y-119330000D01*
X133020000Y-120600000D02*
X133020000Y-121930000D01*
X133020000Y-121930000D02*
X134290000Y-121930000D01*
D12*
G04 #@! TO.C,CN151*
X181239880Y-53751700D02*
X175239880Y-53751700D01*
X181239880Y-48251700D02*
X181239880Y-53751700D01*
X175239880Y-48251700D02*
X181239880Y-48251700D01*
X165239880Y-51501700D02*
X167239880Y-53751700D01*
X165239880Y-48251700D02*
X165239880Y-51501700D01*
X175239880Y-53751700D02*
X167239880Y-53751700D01*
X181239880Y-48251700D02*
X181239880Y-53751700D01*
X165239880Y-48251700D02*
X175239880Y-48251700D01*
G04 #@! TO.C,CN101*
X89949200Y-51552500D02*
X91949200Y-53802500D01*
X89949200Y-48302500D02*
X89949200Y-51552500D01*
X99949200Y-53802500D02*
X91949200Y-53802500D01*
X99949200Y-48302500D02*
X99949200Y-53802500D01*
X89949200Y-48302500D02*
X99949200Y-48302500D01*
G04 #@! TO.C,CN501*
X125748500Y-48251700D02*
X129748500Y-48251700D01*
X125748500Y-53751700D02*
X129748500Y-53751700D01*
X125748500Y-53751700D02*
X119748500Y-53751700D01*
X129748500Y-48251700D02*
X129748500Y-53751700D01*
X119748500Y-48251700D02*
X125748500Y-48251700D01*
X109748500Y-51501700D02*
X111748500Y-53751700D01*
X109748500Y-48251700D02*
X109748500Y-51501700D01*
X119748500Y-53751700D02*
X111748500Y-53751700D01*
X109748500Y-48251700D02*
X119748500Y-48251700D01*
G04 #@! TO.C,CN601*
X155248060Y-53802500D02*
X149248060Y-53802500D01*
X155248060Y-48302500D02*
X155248060Y-53802500D01*
X149248060Y-48302500D02*
X155248060Y-48302500D01*
X139248060Y-51552500D02*
X141248060Y-53802500D01*
X139248060Y-48302500D02*
X139248060Y-51552500D01*
X149248060Y-53802500D02*
X141248060Y-53802500D01*
X155248060Y-48302500D02*
X155248060Y-53802500D01*
X139248060Y-48302500D02*
X149248060Y-48302500D01*
D11*
G04 #@! TO.C,JP3*
X168670000Y-131970000D02*
X183970000Y-131970000D01*
X183970000Y-131970000D02*
X183970000Y-137170000D01*
X183970000Y-137170000D02*
X166070000Y-137170000D01*
X166070000Y-137170000D02*
X166070000Y-134570000D01*
X166070000Y-134570000D02*
X168670000Y-134570000D01*
X168670000Y-134570000D02*
X168670000Y-131970000D01*
X167400000Y-131970000D02*
X166070000Y-131970000D01*
X166070000Y-131970000D02*
X166070000Y-133240000D01*
G04 #@! TO.C,JP4*
X163570000Y-63520000D02*
X181410000Y-63520000D01*
X181410000Y-63520000D02*
X181410000Y-68720000D01*
X181410000Y-68720000D02*
X160970000Y-68720000D01*
X160970000Y-68720000D02*
X160970000Y-66120000D01*
X160970000Y-66120000D02*
X163570000Y-66120000D01*
X163570000Y-66120000D02*
X163570000Y-63520000D01*
X162300000Y-63520000D02*
X160970000Y-63520000D01*
X160970000Y-63520000D02*
X160970000Y-64790000D01*
G04 #@! TO.C,C1*
X195400000Y-63100000D02*
X195400000Y-62400000D01*
X196600000Y-62400000D02*
X196600000Y-63100000D01*
G04 #@! TO.C,C2*
X129900000Y-66850000D02*
X129900000Y-66150000D01*
X131100000Y-66150000D02*
X131100000Y-66850000D01*
D12*
G04 #@! TO.C,CN001*
X68108240Y-126470000D02*
X72858240Y-129970000D01*
X68108240Y-64470000D02*
X68108240Y-126470000D01*
X85608240Y-64470000D02*
X68108240Y-64470000D01*
X85608240Y-129970000D02*
X85608240Y-64470000D01*
X72858240Y-129970000D02*
X85608240Y-129970000D01*
G04 #@! TO.C,IC1*
X119025000Y-72075000D02*
X117650000Y-72075000D01*
X119025000Y-80950000D02*
X123175000Y-80950000D01*
X119025000Y-72050000D02*
X123175000Y-72050000D01*
X119025000Y-80950000D02*
X119025000Y-80835000D01*
X123175000Y-80950000D02*
X123175000Y-80835000D01*
X123175000Y-72050000D02*
X123175000Y-72165000D01*
X119025000Y-72050000D02*
X119025000Y-72075000D01*
D11*
G04 #@! TO.C,R1*
X135250000Y-84070000D02*
X136250000Y-84070000D01*
X136250000Y-85430000D02*
X135250000Y-85430000D01*
G04 #@! TO.C,R2*
X123250000Y-66680000D02*
X122250000Y-66680000D01*
X122250000Y-65320000D02*
X123250000Y-65320000D01*
G04 #@! TO.C,R3*
X188570000Y-57250000D02*
X188570000Y-56250000D01*
X189930000Y-56250000D02*
X189930000Y-57250000D01*
G04 #@! TO.C,R4*
X188570000Y-63250000D02*
X188570000Y-62250000D01*
X189930000Y-62250000D02*
X189930000Y-63250000D01*
G04 #@! TO.C,R5*
X122250000Y-61520000D02*
X123250000Y-61520000D01*
X123250000Y-62880000D02*
X122250000Y-62880000D01*
G04 #@! TO.C,R7*
X134680000Y-66000000D02*
X134680000Y-67000000D01*
X133320000Y-67000000D02*
X133320000Y-66000000D01*
G04 #@! TO.C,R8*
X193430000Y-62250000D02*
X193430000Y-63250000D01*
X192070000Y-63250000D02*
X192070000Y-62250000D01*
G04 #@! TO.C,R9*
X112000000Y-71680000D02*
X111000000Y-71680000D01*
X111000000Y-70320000D02*
X112000000Y-70320000D01*
G04 #@! TO.C,R10*
X111000000Y-73820000D02*
X112000000Y-73820000D01*
X112000000Y-75180000D02*
X111000000Y-75180000D01*
G04 #@! TO.C,JP5*
D12*
X134786666Y-122382380D02*
X134786666Y-123096666D01*
X134739047Y-123239523D01*
X134643809Y-123334761D01*
X134500952Y-123382380D01*
X134405714Y-123382380D01*
X135262857Y-123382380D02*
X135262857Y-122382380D01*
X135643809Y-122382380D01*
X135739047Y-122430000D01*
X135786666Y-122477619D01*
X135834285Y-122572857D01*
X135834285Y-122715714D01*
X135786666Y-122810952D01*
X135739047Y-122858571D01*
X135643809Y-122906190D01*
X135262857Y-122906190D01*
X136739047Y-122382380D02*
X136262857Y-122382380D01*
X136215238Y-122858571D01*
X136262857Y-122810952D01*
X136358095Y-122763333D01*
X136596190Y-122763333D01*
X136691428Y-122810952D01*
X136739047Y-122858571D01*
X136786666Y-122953809D01*
X136786666Y-123191904D01*
X136739047Y-123287142D01*
X136691428Y-123334761D01*
X136596190Y-123382380D01*
X136358095Y-123382380D01*
X136262857Y-123334761D01*
X136215238Y-123287142D01*
G04 #@! TO.C,CN151*
X165597022Y-47358842D02*
X165549403Y-47406461D01*
X165406546Y-47454080D01*
X165311308Y-47454080D01*
X165168451Y-47406461D01*
X165073213Y-47311223D01*
X165025594Y-47215985D01*
X164977975Y-47025509D01*
X164977975Y-46882652D01*
X165025594Y-46692176D01*
X165073213Y-46596938D01*
X165168451Y-46501700D01*
X165311308Y-46454080D01*
X165406546Y-46454080D01*
X165549403Y-46501700D01*
X165597022Y-46549319D01*
X166025594Y-47454080D02*
X166025594Y-46454080D01*
X166597022Y-47454080D01*
X166597022Y-46454080D01*
X167597022Y-47454080D02*
X167025594Y-47454080D01*
X167311308Y-47454080D02*
X167311308Y-46454080D01*
X167216070Y-46596938D01*
X167120832Y-46692176D01*
X167025594Y-46739795D01*
X168501784Y-46454080D02*
X168025594Y-46454080D01*
X167977975Y-46930271D01*
X168025594Y-46882652D01*
X168120832Y-46835033D01*
X168358927Y-46835033D01*
X168454165Y-46882652D01*
X168501784Y-46930271D01*
X168549403Y-47025509D01*
X168549403Y-47263604D01*
X168501784Y-47358842D01*
X168454165Y-47406461D01*
X168358927Y-47454080D01*
X168120832Y-47454080D01*
X168025594Y-47406461D01*
X167977975Y-47358842D01*
X169501784Y-47454080D02*
X168930356Y-47454080D01*
X169216070Y-47454080D02*
X169216070Y-46454080D01*
X169120832Y-46596938D01*
X169025594Y-46692176D01*
X168930356Y-46739795D01*
G04 #@! TO.C,CN101*
X90306342Y-47409642D02*
X90258723Y-47457261D01*
X90115866Y-47504880D01*
X90020628Y-47504880D01*
X89877771Y-47457261D01*
X89782533Y-47362023D01*
X89734914Y-47266785D01*
X89687295Y-47076309D01*
X89687295Y-46933452D01*
X89734914Y-46742976D01*
X89782533Y-46647738D01*
X89877771Y-46552500D01*
X90020628Y-46504880D01*
X90115866Y-46504880D01*
X90258723Y-46552500D01*
X90306342Y-46600119D01*
X90734914Y-47504880D02*
X90734914Y-46504880D01*
X91306342Y-47504880D01*
X91306342Y-46504880D01*
X92306342Y-47504880D02*
X91734914Y-47504880D01*
X92020628Y-47504880D02*
X92020628Y-46504880D01*
X91925390Y-46647738D01*
X91830152Y-46742976D01*
X91734914Y-46790595D01*
X92925390Y-46504880D02*
X93020628Y-46504880D01*
X93115866Y-46552500D01*
X93163485Y-46600119D01*
X93211104Y-46695357D01*
X93258723Y-46885833D01*
X93258723Y-47123928D01*
X93211104Y-47314404D01*
X93163485Y-47409642D01*
X93115866Y-47457261D01*
X93020628Y-47504880D01*
X92925390Y-47504880D01*
X92830152Y-47457261D01*
X92782533Y-47409642D01*
X92734914Y-47314404D01*
X92687295Y-47123928D01*
X92687295Y-46885833D01*
X92734914Y-46695357D01*
X92782533Y-46600119D01*
X92830152Y-46552500D01*
X92925390Y-46504880D01*
X94211104Y-47504880D02*
X93639676Y-47504880D01*
X93925390Y-47504880D02*
X93925390Y-46504880D01*
X93830152Y-46647738D01*
X93734914Y-46742976D01*
X93639676Y-46790595D01*
G04 #@! TO.C,CN501*
X110105642Y-47358842D02*
X110058023Y-47406461D01*
X109915166Y-47454080D01*
X109819928Y-47454080D01*
X109677071Y-47406461D01*
X109581833Y-47311223D01*
X109534214Y-47215985D01*
X109486595Y-47025509D01*
X109486595Y-46882652D01*
X109534214Y-46692176D01*
X109581833Y-46596938D01*
X109677071Y-46501700D01*
X109819928Y-46454080D01*
X109915166Y-46454080D01*
X110058023Y-46501700D01*
X110105642Y-46549319D01*
X110534214Y-47454080D02*
X110534214Y-46454080D01*
X111105642Y-47454080D01*
X111105642Y-46454080D01*
X112058023Y-46454080D02*
X111581833Y-46454080D01*
X111534214Y-46930271D01*
X111581833Y-46882652D01*
X111677071Y-46835033D01*
X111915166Y-46835033D01*
X112010404Y-46882652D01*
X112058023Y-46930271D01*
X112105642Y-47025509D01*
X112105642Y-47263604D01*
X112058023Y-47358842D01*
X112010404Y-47406461D01*
X111915166Y-47454080D01*
X111677071Y-47454080D01*
X111581833Y-47406461D01*
X111534214Y-47358842D01*
X112724690Y-46454080D02*
X112819928Y-46454080D01*
X112915166Y-46501700D01*
X112962785Y-46549319D01*
X113010404Y-46644557D01*
X113058023Y-46835033D01*
X113058023Y-47073128D01*
X113010404Y-47263604D01*
X112962785Y-47358842D01*
X112915166Y-47406461D01*
X112819928Y-47454080D01*
X112724690Y-47454080D01*
X112629452Y-47406461D01*
X112581833Y-47358842D01*
X112534214Y-47263604D01*
X112486595Y-47073128D01*
X112486595Y-46835033D01*
X112534214Y-46644557D01*
X112581833Y-46549319D01*
X112629452Y-46501700D01*
X112724690Y-46454080D01*
X114010404Y-47454080D02*
X113438976Y-47454080D01*
X113724690Y-47454080D02*
X113724690Y-46454080D01*
X113629452Y-46596938D01*
X113534214Y-46692176D01*
X113438976Y-46739795D01*
G04 #@! TO.C,CN601*
X139605202Y-47409642D02*
X139557583Y-47457261D01*
X139414726Y-47504880D01*
X139319488Y-47504880D01*
X139176631Y-47457261D01*
X139081393Y-47362023D01*
X139033774Y-47266785D01*
X138986155Y-47076309D01*
X138986155Y-46933452D01*
X139033774Y-46742976D01*
X139081393Y-46647738D01*
X139176631Y-46552500D01*
X139319488Y-46504880D01*
X139414726Y-46504880D01*
X139557583Y-46552500D01*
X139605202Y-46600119D01*
X140033774Y-47504880D02*
X140033774Y-46504880D01*
X140605202Y-47504880D01*
X140605202Y-46504880D01*
X141509964Y-46504880D02*
X141319488Y-46504880D01*
X141224250Y-46552500D01*
X141176631Y-46600119D01*
X141081393Y-46742976D01*
X141033774Y-46933452D01*
X141033774Y-47314404D01*
X141081393Y-47409642D01*
X141129012Y-47457261D01*
X141224250Y-47504880D01*
X141414726Y-47504880D01*
X141509964Y-47457261D01*
X141557583Y-47409642D01*
X141605202Y-47314404D01*
X141605202Y-47076309D01*
X141557583Y-46981071D01*
X141509964Y-46933452D01*
X141414726Y-46885833D01*
X141224250Y-46885833D01*
X141129012Y-46933452D01*
X141081393Y-46981071D01*
X141033774Y-47076309D01*
X142224250Y-46504880D02*
X142319488Y-46504880D01*
X142414726Y-46552500D01*
X142462345Y-46600119D01*
X142509964Y-46695357D01*
X142557583Y-46885833D01*
X142557583Y-47123928D01*
X142509964Y-47314404D01*
X142462345Y-47409642D01*
X142414726Y-47457261D01*
X142319488Y-47504880D01*
X142224250Y-47504880D01*
X142129012Y-47457261D01*
X142081393Y-47409642D01*
X142033774Y-47314404D01*
X141986155Y-47123928D01*
X141986155Y-46885833D01*
X142033774Y-46695357D01*
X142081393Y-46600119D01*
X142129012Y-46552500D01*
X142224250Y-46504880D01*
X143509964Y-47504880D02*
X142938536Y-47504880D01*
X143224250Y-47504880D02*
X143224250Y-46504880D01*
X143129012Y-46647738D01*
X143033774Y-46742976D01*
X142938536Y-46790595D01*
G04 #@! TO.C,JP3*
X181766666Y-129852380D02*
X181766666Y-130566666D01*
X181719047Y-130709523D01*
X181623809Y-130804761D01*
X181480952Y-130852380D01*
X181385714Y-130852380D01*
X182242857Y-130852380D02*
X182242857Y-129852380D01*
X182623809Y-129852380D01*
X182719047Y-129900000D01*
X182766666Y-129947619D01*
X182814285Y-130042857D01*
X182814285Y-130185714D01*
X182766666Y-130280952D01*
X182719047Y-130328571D01*
X182623809Y-130376190D01*
X182242857Y-130376190D01*
X183147619Y-129852380D02*
X183766666Y-129852380D01*
X183433333Y-130233333D01*
X183576190Y-130233333D01*
X183671428Y-130280952D01*
X183719047Y-130328571D01*
X183766666Y-130423809D01*
X183766666Y-130661904D01*
X183719047Y-130757142D01*
X183671428Y-130804761D01*
X183576190Y-130852380D01*
X183290476Y-130852380D01*
X183195238Y-130804761D01*
X183147619Y-130757142D01*
G04 #@! TO.C,JP4*
X178616666Y-61552380D02*
X178616666Y-62266666D01*
X178569047Y-62409523D01*
X178473809Y-62504761D01*
X178330952Y-62552380D01*
X178235714Y-62552380D01*
X179092857Y-62552380D02*
X179092857Y-61552380D01*
X179473809Y-61552380D01*
X179569047Y-61600000D01*
X179616666Y-61647619D01*
X179664285Y-61742857D01*
X179664285Y-61885714D01*
X179616666Y-61980952D01*
X179569047Y-62028571D01*
X179473809Y-62076190D01*
X179092857Y-62076190D01*
X180521428Y-61885714D02*
X180521428Y-62552380D01*
X180283333Y-61504761D02*
X180045238Y-62219047D01*
X180664285Y-62219047D01*
G04 #@! TO.C,C1*
X195833333Y-60107142D02*
X195785714Y-60154761D01*
X195642857Y-60202380D01*
X195547619Y-60202380D01*
X195404761Y-60154761D01*
X195309523Y-60059523D01*
X195261904Y-59964285D01*
X195214285Y-59773809D01*
X195214285Y-59630952D01*
X195261904Y-59440476D01*
X195309523Y-59345238D01*
X195404761Y-59250000D01*
X195547619Y-59202380D01*
X195642857Y-59202380D01*
X195785714Y-59250000D01*
X195833333Y-59297619D01*
X196785714Y-60202380D02*
X196214285Y-60202380D01*
X196500000Y-60202380D02*
X196500000Y-59202380D01*
X196404761Y-59345238D01*
X196309523Y-59440476D01*
X196214285Y-59488095D01*
G04 #@! TO.C,C2*
X130333333Y-64107142D02*
X130285714Y-64154761D01*
X130142857Y-64202380D01*
X130047619Y-64202380D01*
X129904761Y-64154761D01*
X129809523Y-64059523D01*
X129761904Y-63964285D01*
X129714285Y-63773809D01*
X129714285Y-63630952D01*
X129761904Y-63440476D01*
X129809523Y-63345238D01*
X129904761Y-63250000D01*
X130047619Y-63202380D01*
X130142857Y-63202380D01*
X130285714Y-63250000D01*
X130333333Y-63297619D01*
X130714285Y-63297619D02*
X130761904Y-63250000D01*
X130857142Y-63202380D01*
X131095238Y-63202380D01*
X131190476Y-63250000D01*
X131238095Y-63297619D01*
X131285714Y-63392857D01*
X131285714Y-63488095D01*
X131238095Y-63630952D01*
X130666666Y-64202380D01*
X131285714Y-64202380D01*
G04 #@! TO.C,CN001*
X87715382Y-68112857D02*
X87763001Y-68160476D01*
X87810620Y-68303333D01*
X87810620Y-68398571D01*
X87763001Y-68541428D01*
X87667763Y-68636666D01*
X87572525Y-68684285D01*
X87382049Y-68731904D01*
X87239192Y-68731904D01*
X87048716Y-68684285D01*
X86953478Y-68636666D01*
X86858240Y-68541428D01*
X86810620Y-68398571D01*
X86810620Y-68303333D01*
X86858240Y-68160476D01*
X86905859Y-68112857D01*
X87810620Y-67684285D02*
X86810620Y-67684285D01*
X87810620Y-67112857D01*
X86810620Y-67112857D01*
X86810620Y-66446190D02*
X86810620Y-66350952D01*
X86858240Y-66255714D01*
X86905859Y-66208095D01*
X87001097Y-66160476D01*
X87191573Y-66112857D01*
X87429668Y-66112857D01*
X87620144Y-66160476D01*
X87715382Y-66208095D01*
X87763001Y-66255714D01*
X87810620Y-66350952D01*
X87810620Y-66446190D01*
X87763001Y-66541428D01*
X87715382Y-66589047D01*
X87620144Y-66636666D01*
X87429668Y-66684285D01*
X87191573Y-66684285D01*
X87001097Y-66636666D01*
X86905859Y-66589047D01*
X86858240Y-66541428D01*
X86810620Y-66446190D01*
X86810620Y-65493809D02*
X86810620Y-65398571D01*
X86858240Y-65303333D01*
X86905859Y-65255714D01*
X87001097Y-65208095D01*
X87191573Y-65160476D01*
X87429668Y-65160476D01*
X87620144Y-65208095D01*
X87715382Y-65255714D01*
X87763001Y-65303333D01*
X87810620Y-65398571D01*
X87810620Y-65493809D01*
X87763001Y-65589047D01*
X87715382Y-65636666D01*
X87620144Y-65684285D01*
X87429668Y-65731904D01*
X87191573Y-65731904D01*
X87001097Y-65684285D01*
X86905859Y-65636666D01*
X86858240Y-65589047D01*
X86810620Y-65493809D01*
X87810620Y-64208095D02*
X87810620Y-64779523D01*
X87810620Y-64493809D02*
X86810620Y-64493809D01*
X86953478Y-64589047D01*
X87048716Y-64684285D01*
X87096335Y-64779523D01*
G04 #@! TO.C,IC1*
X120123809Y-71577380D02*
X120123809Y-70577380D01*
X121171428Y-71482142D02*
X121123809Y-71529761D01*
X120980952Y-71577380D01*
X120885714Y-71577380D01*
X120742857Y-71529761D01*
X120647619Y-71434523D01*
X120600000Y-71339285D01*
X120552380Y-71148809D01*
X120552380Y-71005952D01*
X120600000Y-70815476D01*
X120647619Y-70720238D01*
X120742857Y-70625000D01*
X120885714Y-70577380D01*
X120980952Y-70577380D01*
X121123809Y-70625000D01*
X121171428Y-70672619D01*
X122123809Y-71577380D02*
X121552380Y-71577380D01*
X121838095Y-71577380D02*
X121838095Y-70577380D01*
X121742857Y-70720238D01*
X121647619Y-70815476D01*
X121552380Y-70863095D01*
G04 #@! TO.C,R1*
X135583333Y-83752380D02*
X135250000Y-83276190D01*
X135011904Y-83752380D02*
X135011904Y-82752380D01*
X135392857Y-82752380D01*
X135488095Y-82800000D01*
X135535714Y-82847619D01*
X135583333Y-82942857D01*
X135583333Y-83085714D01*
X135535714Y-83180952D01*
X135488095Y-83228571D01*
X135392857Y-83276190D01*
X135011904Y-83276190D01*
X136535714Y-83752380D02*
X135964285Y-83752380D01*
X136250000Y-83752380D02*
X136250000Y-82752380D01*
X136154761Y-82895238D01*
X136059523Y-82990476D01*
X135964285Y-83038095D01*
G04 #@! TO.C,R2*
X122583333Y-65002380D02*
X122250000Y-64526190D01*
X122011904Y-65002380D02*
X122011904Y-64002380D01*
X122392857Y-64002380D01*
X122488095Y-64050000D01*
X122535714Y-64097619D01*
X122583333Y-64192857D01*
X122583333Y-64335714D01*
X122535714Y-64430952D01*
X122488095Y-64478571D01*
X122392857Y-64526190D01*
X122011904Y-64526190D01*
X122964285Y-64097619D02*
X123011904Y-64050000D01*
X123107142Y-64002380D01*
X123345238Y-64002380D01*
X123440476Y-64050000D01*
X123488095Y-64097619D01*
X123535714Y-64192857D01*
X123535714Y-64288095D01*
X123488095Y-64430952D01*
X122916666Y-65002380D01*
X123535714Y-65002380D01*
G04 #@! TO.C,R3*
X189083333Y-54202380D02*
X188750000Y-53726190D01*
X188511904Y-54202380D02*
X188511904Y-53202380D01*
X188892857Y-53202380D01*
X188988095Y-53250000D01*
X189035714Y-53297619D01*
X189083333Y-53392857D01*
X189083333Y-53535714D01*
X189035714Y-53630952D01*
X188988095Y-53678571D01*
X188892857Y-53726190D01*
X188511904Y-53726190D01*
X189416666Y-53202380D02*
X190035714Y-53202380D01*
X189702380Y-53583333D01*
X189845238Y-53583333D01*
X189940476Y-53630952D01*
X189988095Y-53678571D01*
X190035714Y-53773809D01*
X190035714Y-54011904D01*
X189988095Y-54107142D01*
X189940476Y-54154761D01*
X189845238Y-54202380D01*
X189559523Y-54202380D01*
X189464285Y-54154761D01*
X189416666Y-54107142D01*
G04 #@! TO.C,R4*
X189083333Y-60202380D02*
X188750000Y-59726190D01*
X188511904Y-60202380D02*
X188511904Y-59202380D01*
X188892857Y-59202380D01*
X188988095Y-59250000D01*
X189035714Y-59297619D01*
X189083333Y-59392857D01*
X189083333Y-59535714D01*
X189035714Y-59630952D01*
X188988095Y-59678571D01*
X188892857Y-59726190D01*
X188511904Y-59726190D01*
X189940476Y-59535714D02*
X189940476Y-60202380D01*
X189702380Y-59154761D02*
X189464285Y-59869047D01*
X190083333Y-59869047D01*
G04 #@! TO.C,R5*
X122583333Y-61202380D02*
X122250000Y-60726190D01*
X122011904Y-61202380D02*
X122011904Y-60202380D01*
X122392857Y-60202380D01*
X122488095Y-60250000D01*
X122535714Y-60297619D01*
X122583333Y-60392857D01*
X122583333Y-60535714D01*
X122535714Y-60630952D01*
X122488095Y-60678571D01*
X122392857Y-60726190D01*
X122011904Y-60726190D01*
X123488095Y-60202380D02*
X123011904Y-60202380D01*
X122964285Y-60678571D01*
X123011904Y-60630952D01*
X123107142Y-60583333D01*
X123345238Y-60583333D01*
X123440476Y-60630952D01*
X123488095Y-60678571D01*
X123535714Y-60773809D01*
X123535714Y-61011904D01*
X123488095Y-61107142D01*
X123440476Y-61154761D01*
X123345238Y-61202380D01*
X123107142Y-61202380D01*
X123011904Y-61154761D01*
X122964285Y-61107142D01*
G04 #@! TO.C,R7*
X133833333Y-64202380D02*
X133500000Y-63726190D01*
X133261904Y-64202380D02*
X133261904Y-63202380D01*
X133642857Y-63202380D01*
X133738095Y-63250000D01*
X133785714Y-63297619D01*
X133833333Y-63392857D01*
X133833333Y-63535714D01*
X133785714Y-63630952D01*
X133738095Y-63678571D01*
X133642857Y-63726190D01*
X133261904Y-63726190D01*
X134166666Y-63202380D02*
X134833333Y-63202380D01*
X134404761Y-64202380D01*
G04 #@! TO.C,R8*
X192583333Y-60202380D02*
X192250000Y-59726190D01*
X192011904Y-60202380D02*
X192011904Y-59202380D01*
X192392857Y-59202380D01*
X192488095Y-59250000D01*
X192535714Y-59297619D01*
X192583333Y-59392857D01*
X192583333Y-59535714D01*
X192535714Y-59630952D01*
X192488095Y-59678571D01*
X192392857Y-59726190D01*
X192011904Y-59726190D01*
X193154761Y-59630952D02*
X193059523Y-59583333D01*
X193011904Y-59535714D01*
X192964285Y-59440476D01*
X192964285Y-59392857D01*
X193011904Y-59297619D01*
X193059523Y-59250000D01*
X193154761Y-59202380D01*
X193345238Y-59202380D01*
X193440476Y-59250000D01*
X193488095Y-59297619D01*
X193535714Y-59392857D01*
X193535714Y-59440476D01*
X193488095Y-59535714D01*
X193440476Y-59583333D01*
X193345238Y-59630952D01*
X193154761Y-59630952D01*
X193059523Y-59678571D01*
X193011904Y-59726190D01*
X192964285Y-59821428D01*
X192964285Y-60011904D01*
X193011904Y-60107142D01*
X193059523Y-60154761D01*
X193154761Y-60202380D01*
X193345238Y-60202380D01*
X193440476Y-60154761D01*
X193488095Y-60107142D01*
X193535714Y-60011904D01*
X193535714Y-59821428D01*
X193488095Y-59726190D01*
X193440476Y-59678571D01*
X193345238Y-59630952D01*
G04 #@! TO.C,R9*
X111333333Y-70002380D02*
X111000000Y-69526190D01*
X110761904Y-70002380D02*
X110761904Y-69002380D01*
X111142857Y-69002380D01*
X111238095Y-69050000D01*
X111285714Y-69097619D01*
X111333333Y-69192857D01*
X111333333Y-69335714D01*
X111285714Y-69430952D01*
X111238095Y-69478571D01*
X111142857Y-69526190D01*
X110761904Y-69526190D01*
X111809523Y-70002380D02*
X112000000Y-70002380D01*
X112095238Y-69954761D01*
X112142857Y-69907142D01*
X112238095Y-69764285D01*
X112285714Y-69573809D01*
X112285714Y-69192857D01*
X112238095Y-69097619D01*
X112190476Y-69050000D01*
X112095238Y-69002380D01*
X111904761Y-69002380D01*
X111809523Y-69050000D01*
X111761904Y-69097619D01*
X111714285Y-69192857D01*
X111714285Y-69430952D01*
X111761904Y-69526190D01*
X111809523Y-69573809D01*
X111904761Y-69621428D01*
X112095238Y-69621428D01*
X112190476Y-69573809D01*
X112238095Y-69526190D01*
X112285714Y-69430952D01*
G04 #@! TO.C,R10*
X110857142Y-73502380D02*
X110523809Y-73026190D01*
X110285714Y-73502380D02*
X110285714Y-72502380D01*
X110666666Y-72502380D01*
X110761904Y-72550000D01*
X110809523Y-72597619D01*
X110857142Y-72692857D01*
X110857142Y-72835714D01*
X110809523Y-72930952D01*
X110761904Y-72978571D01*
X110666666Y-73026190D01*
X110285714Y-73026190D01*
X111809523Y-73502380D02*
X111238095Y-73502380D01*
X111523809Y-73502380D02*
X111523809Y-72502380D01*
X111428571Y-72645238D01*
X111333333Y-72740476D01*
X111238095Y-72788095D01*
X112428571Y-72502380D02*
X112523809Y-72502380D01*
X112619047Y-72550000D01*
X112666666Y-72597619D01*
X112714285Y-72692857D01*
X112761904Y-72883333D01*
X112761904Y-73121428D01*
X112714285Y-73311904D01*
X112666666Y-73407142D01*
X112619047Y-73454761D01*
X112523809Y-73502380D01*
X112428571Y-73502380D01*
X112333333Y-73454761D01*
X112285714Y-73407142D01*
X112238095Y-73311904D01*
X112190476Y-73121428D01*
X112190476Y-72883333D01*
X112238095Y-72692857D01*
X112285714Y-72597619D01*
X112333333Y-72550000D01*
X112428571Y-72502380D01*
G04 #@! TD*
M02*
